<svg width="106" height="106" viewBox="0 0 106 106" fill="none" xmlns="http://www.w3.org/2000/svg">
<g filter="url(#filter0_dii_9_2167)">
<circle cx="53" cy="23" r="23" fill="#44979D"/>
<circle cx="53" cy="23" r="22.5" stroke="url(#paint0_linear_9_2167)" style="mix-blend-mode:overlay"/>
</g>
<path d="M54.0542 31.5234C53.6558 31.7559 53.332 31.8638 53 31.8638C52.6597 31.8638 52.3442 31.7559 51.9458 31.5234L45.4463 27.7466C44.7739 27.3564 44.5166 27.0576 44.5166 26.6011C44.5166 26.1445 44.7739 25.8457 45.4463 25.4473L49.3311 23.1978L45.4463 20.9482C44.7739 20.5498 44.5166 20.251 44.5166 19.7944C44.5166 19.3379 44.7739 19.0391 45.4463 18.6489L51.9458 14.8721C52.3442 14.6396 52.6597 14.5317 53 14.5317C53.332 14.5317 53.6558 14.6396 54.0542 14.8721L60.5454 18.6489C61.2178 19.0391 61.4834 19.3379 61.4834 19.7944C61.4834 20.251 61.2178 20.5498 60.5454 20.9482L56.6689 23.1978L60.5454 25.4473C61.2178 25.8457 61.4834 26.1445 61.4834 26.6011C61.4834 27.0576 61.2178 27.3564 60.5454 27.7466L54.0542 31.5234ZM53 25.0571C52.6597 25.0571 52.3442 24.9492 51.9458 24.7168L50.709 24.0029L46.3096 26.5181C46.2764 26.5347 46.2515 26.5596 46.2515 26.6011C46.2515 26.6426 46.2764 26.6592 46.3096 26.6841L52.6265 30.2949C52.7676 30.3696 52.8838 30.4111 53 30.4111C53.1162 30.4111 53.2324 30.3696 53.3652 30.2949L59.6821 26.6841C59.7236 26.6592 59.7485 26.6426 59.7485 26.6011C59.7485 26.5596 59.7236 26.5347 59.6821 26.5181L55.2827 24.0029L54.0542 24.7168C53.6558 24.9492 53.332 25.0571 53 25.0571Z" fill="url(#paint1_linear_9_2167)" style="mix-blend-mode:overlay"/>
<defs>
<filter id="filter0_dii_9_2167" x="0" y="-1" width="106" height="107" filterUnits="userSpaceOnUse" color-interpolation-filters="sRGB">
<feFlood flood-opacity="0" result="BackgroundImageFix"/>
<feColorMatrix in="SourceAlpha" type="matrix" values="0 0 0 0 0 0 0 0 0 0 0 0 0 0 0 0 0 0 127 0" result="hardAlpha"/>
<feOffset dy="30"/>
<feGaussianBlur stdDeviation="15"/>
<feComposite in2="hardAlpha" operator="out"/>
<feColorMatrix type="matrix" values="0 0 0 0 0 0 0 0 0 0 0 0 0 0 0 0 0 0 0.6 0"/>
<feBlend mode="normal" in2="BackgroundImageFix" result="effect1_dropShadow_9_2167"/>
<feBlend mode="normal" in="SourceGraphic" in2="effect1_dropShadow_9_2167" result="shape"/>
<feColorMatrix in="SourceAlpha" type="matrix" values="0 0 0 0 0 0 0 0 0 0 0 0 0 0 0 0 0 0 127 0" result="hardAlpha"/>
<feOffset/>
<feGaussianBlur stdDeviation="2.5"/>
<feComposite in2="hardAlpha" operator="arithmetic" k2="-1" k3="1"/>
<feColorMatrix type="matrix" values="0 0 0 0 1 0 0 0 0 0.675 0 0 0 0 0.892944 0 0 0 1 0"/>
<feBlend mode="overlay" in2="shape" result="effect2_innerShadow_9_2167"/>
<feColorMatrix in="SourceAlpha" type="matrix" values="0 0 0 0 0 0 0 0 0 0 0 0 0 0 0 0 0 0 127 0" result="hardAlpha"/>
<feOffset dy="-1"/>
<feGaussianBlur stdDeviation="4"/>
<feComposite in2="hardAlpha" operator="arithmetic" k2="-1" k3="1"/>
<feColorMatrix type="matrix" values="0 0 0 0 0.576623 0 0 0 0 0.460156 0 0 0 0 0.7125 0 0 0 1 0"/>
<feBlend mode="overlay" in2="effect2_innerShadow_9_2167" result="effect3_innerShadow_9_2167"/>
</filter>
<linearGradient id="paint0_linear_9_2167" x1="47.3937" y1="31.9063" x2="67.9468" y2="2.79559" gradientUnits="userSpaceOnUse">
<stop stop-opacity="0.5"/>
<stop offset="1" stop-color="white" stop-opacity="0.5"/>
</linearGradient>
<linearGradient id="paint1_linear_9_2167" x1="53" y1="13" x2="53" y2="33" gradientUnits="userSpaceOnUse">
<stop stop-color="white" stop-opacity="0.8"/>
<stop offset="1" stop-color="white" stop-opacity="0.3"/>
</linearGradient>
</defs>
</svg>
