<svg width="373" height="170" viewBox="0 0 373 170" fill="none" xmlns="http://www.w3.org/2000/svg">
<path d="M21.064 48.076C18.472 48.076 16.056 47.66 13.816 46.828C11.608 45.964 9.688 44.748 8.056 43.18C6.424 41.612 5.144 39.772 4.216 37.66C3.32 35.548 2.872 33.228 2.872 30.7C2.872 28.172 3.32 25.852 4.216 23.74C5.144 21.628 6.424 19.788 8.056 18.22C9.72 16.652 11.656 15.452 13.864 14.62C16.072 13.756 18.488 13.324 21.112 13.324C24.024 13.324 26.648 13.836 28.984 14.86C31.352 15.852 33.336 17.324 34.936 19.276L29.944 23.884C28.792 22.572 27.512 21.596 26.104 20.956C24.696 20.284 23.16 19.948 21.496 19.948C19.928 19.948 18.488 20.204 17.176 20.716C15.864 21.228 14.728 21.964 13.768 22.924C12.808 23.884 12.056 25.02 11.512 26.332C11 27.644 10.744 29.1 10.744 30.7C10.744 32.3 11 33.756 11.512 35.068C12.056 36.38 12.808 37.516 13.768 38.476C14.728 39.436 15.864 40.172 17.176 40.684C18.488 41.196 19.928 41.452 21.496 41.452C23.16 41.452 24.696 41.132 26.104 40.492C27.512 39.82 28.792 38.812 29.944 37.468L34.936 42.076C33.336 44.028 31.352 45.516 28.984 46.54C26.648 47.564 24.008 48.076 21.064 48.076ZM51.0565 47.884C48.3045 47.884 45.8565 47.308 43.7125 46.156C41.6005 45.004 39.9205 43.436 38.6725 41.452C37.4565 39.436 36.8485 37.148 36.8485 34.588C36.8485 31.996 37.4565 29.708 38.6725 27.724C39.9205 25.708 41.6005 24.14 43.7125 23.02C45.8565 21.868 48.3045 21.292 51.0565 21.292C53.7765 21.292 56.2085 21.868 58.3525 23.02C60.4965 24.14 62.1765 25.692 63.3925 27.676C64.6085 29.66 65.2165 31.964 65.2165 34.588C65.2165 37.148 64.6085 39.436 63.3925 41.452C62.1765 43.436 60.4965 45.004 58.3525 46.156C56.2085 47.308 53.7765 47.884 51.0565 47.884ZM51.0565 41.74C52.3045 41.74 53.4245 41.452 54.4165 40.876C55.4085 40.3 56.1925 39.484 56.7685 38.428C57.3445 37.34 57.6325 36.06 57.6325 34.588C57.6325 33.084 57.3445 31.804 56.7685 30.748C56.1925 29.692 55.4085 28.876 54.4165 28.3C53.4245 27.724 52.3045 27.436 51.0565 27.436C49.8085 27.436 48.6885 27.724 47.6965 28.3C46.7045 28.876 45.9045 29.692 45.2965 30.748C44.7205 31.804 44.4325 33.084 44.4325 34.588C44.4325 36.06 44.7205 37.34 45.2965 38.428C45.9045 39.484 46.7045 40.3 47.6965 40.876C48.6885 41.452 49.8085 41.74 51.0565 41.74ZM85.9176 21.292C87.9656 21.292 89.7896 21.708 91.3896 22.54C93.0216 23.34 94.3016 24.588 95.2296 26.284C96.1576 27.948 96.6216 30.092 96.6216 32.716V47.5H89.1336V33.868C89.1336 31.788 88.6696 30.252 87.7416 29.26C86.8456 28.268 85.5656 27.772 83.9016 27.772C82.7176 27.772 81.6456 28.028 80.6856 28.54C79.7576 29.02 79.0216 29.772 78.4776 30.796C77.9656 31.82 77.7096 33.132 77.7096 34.732V47.5H70.2216V21.676H77.3736V28.828L76.0296 26.668C76.9576 24.94 78.2856 23.612 80.0136 22.684C81.7416 21.756 83.7096 21.292 85.9176 21.292ZM113.969 47.884C110.929 47.884 108.561 47.116 106.865 45.58C105.169 44.012 104.321 41.692 104.321 38.62V15.964H111.809V38.524C111.809 39.612 112.097 40.46 112.673 41.068C113.249 41.644 114.033 41.932 115.025 41.932C116.209 41.932 117.217 41.612 118.049 40.972L120.065 46.252C119.297 46.796 118.369 47.212 117.281 47.5C116.225 47.756 115.121 47.884 113.969 47.884ZM100.337 28.012V22.252H118.241V28.012H100.337ZM140.109 47.5V42.46L139.629 41.356V32.332C139.629 30.732 139.133 29.484 138.141 28.588C137.181 27.692 135.693 27.244 133.677 27.244C132.301 27.244 130.941 27.468 129.597 27.916C128.285 28.332 127.165 28.908 126.237 29.644L123.549 24.412C124.957 23.42 126.653 22.652 128.637 22.108C130.621 21.564 132.637 21.292 134.685 21.292C138.621 21.292 141.677 22.22 143.853 24.076C146.029 25.932 147.117 28.828 147.117 32.764V47.5H140.109ZM132.237 47.884C130.221 47.884 128.493 47.548 127.053 46.876C125.613 46.172 124.509 45.228 123.741 44.044C122.973 42.86 122.589 41.532 122.589 40.06C122.589 38.524 122.957 37.18 123.693 36.028C124.461 34.876 125.661 33.98 127.293 33.34C128.925 32.668 131.053 32.332 133.677 32.332H140.541V36.7H134.493C132.733 36.7 131.517 36.988 130.845 37.564C130.205 38.14 129.885 38.86 129.885 39.724C129.885 40.684 130.253 41.452 130.989 42.028C131.757 42.572 132.797 42.844 134.109 42.844C135.357 42.844 136.477 42.556 137.469 41.98C138.461 41.372 139.181 40.492 139.629 39.34L140.781 42.796C140.237 44.46 139.245 45.724 137.805 46.588C136.365 47.452 134.509 47.884 132.237 47.884ZM166.561 47.884C163.777 47.884 161.297 47.324 159.121 46.204C156.945 45.052 155.233 43.468 153.985 41.452C152.769 39.436 152.161 37.148 152.161 34.588C152.161 31.996 152.769 29.708 153.985 27.724C155.233 25.708 156.945 24.14 159.121 23.02C161.297 21.868 163.777 21.292 166.561 21.292C169.281 21.292 171.649 21.868 173.665 23.02C175.681 24.14 177.169 25.756 178.129 27.868L172.321 30.988C171.649 29.772 170.801 28.876 169.777 28.3C168.785 27.724 167.697 27.436 166.513 27.436C165.233 27.436 164.081 27.724 163.057 28.3C162.033 28.876 161.217 29.692 160.609 30.748C160.033 31.804 159.745 33.084 159.745 34.588C159.745 36.092 160.033 37.372 160.609 38.428C161.217 39.484 162.033 40.3 163.057 40.876C164.081 41.452 165.233 41.74 166.513 41.74C167.697 41.74 168.785 41.468 169.777 40.924C170.801 40.348 171.649 39.436 172.321 38.188L178.129 41.356C177.169 43.436 175.681 45.052 173.665 46.204C171.649 47.324 169.281 47.884 166.561 47.884ZM193.375 47.884C190.335 47.884 187.967 47.116 186.271 45.58C184.575 44.012 183.727 41.692 183.727 38.62V15.964H191.215V38.524C191.215 39.612 191.503 40.46 192.079 41.068C192.655 41.644 193.439 41.932 194.431 41.932C195.615 41.932 196.623 41.612 197.455 40.972L199.471 46.252C198.703 46.796 197.775 47.212 196.687 47.5C195.631 47.756 194.527 47.884 193.375 47.884ZM179.743 28.012V22.252H197.647V28.012H179.743ZM250.341 21.292C252.389 21.292 254.197 21.708 255.765 22.54C257.365 23.34 258.613 24.588 259.509 26.284C260.437 27.948 260.901 30.092 260.901 32.716V47.5H253.413V33.868C253.413 31.788 252.981 30.252 252.117 29.26C251.253 28.268 250.037 27.772 248.469 27.772C247.381 27.772 246.405 28.028 245.541 28.54C244.677 29.02 244.005 29.756 243.525 30.748C243.045 31.74 242.805 33.004 242.805 34.54V47.5H235.317V33.868C235.317 31.788 234.885 30.252 234.021 29.26C233.189 28.268 231.989 27.772 230.421 27.772C229.333 27.772 228.357 28.028 227.493 28.54C226.629 29.02 225.957 29.756 225.477 30.748C224.997 31.74 224.757 33.004 224.757 34.54V47.5H217.269V21.676H224.421V28.732L223.077 26.668C223.973 24.908 225.237 23.58 226.869 22.684C228.533 21.756 230.421 21.292 232.533 21.292C234.901 21.292 236.965 21.9 238.725 23.116C240.517 24.3 241.701 26.124 242.277 28.588L239.637 27.868C240.501 25.852 241.877 24.252 243.765 23.068C245.685 21.884 247.877 21.292 250.341 21.292ZM280.616 47.884C277.672 47.884 275.08 47.308 272.84 46.156C270.632 45.004 268.92 43.436 267.704 41.452C266.488 39.436 265.88 37.148 265.88 34.588C265.88 31.996 266.472 29.708 267.656 27.724C268.872 25.708 270.52 24.14 272.6 23.02C274.68 21.868 277.032 21.292 279.656 21.292C282.184 21.292 284.456 21.836 286.472 22.924C288.52 23.98 290.136 25.516 291.32 27.532C292.504 29.516 293.096 31.9 293.096 34.684C293.096 34.972 293.08 35.308 293.048 35.692C293.016 36.044 292.984 36.38 292.952 36.7H271.976V32.332H289.016L286.136 33.628C286.136 32.284 285.864 31.116 285.32 30.124C284.776 29.132 284.024 28.364 283.064 27.82C282.104 27.244 280.984 26.956 279.704 26.956C278.424 26.956 277.288 27.244 276.296 27.82C275.336 28.364 274.584 29.148 274.04 30.172C273.496 31.164 273.224 32.348 273.224 33.724V34.876C273.224 36.284 273.528 37.532 274.136 38.62C274.776 39.676 275.656 40.492 276.776 41.068C277.928 41.612 279.272 41.884 280.808 41.884C282.184 41.884 283.384 41.676 284.408 41.26C285.464 40.844 286.424 40.22 287.288 39.388L291.272 43.708C290.088 45.052 288.6 46.092 286.808 46.828C285.016 47.532 282.952 47.884 280.616 47.884ZM323.963 47.884C321.211 47.884 318.763 47.308 316.619 46.156C314.507 45.004 312.827 43.436 311.579 41.452C310.363 39.436 309.755 37.148 309.755 34.588C309.755 31.996 310.363 29.708 311.579 27.724C312.827 25.708 314.507 24.14 316.619 23.02C318.763 21.868 321.211 21.292 323.963 21.292C326.683 21.292 329.115 21.868 331.259 23.02C333.403 24.14 335.083 25.692 336.299 27.676C337.515 29.66 338.123 31.964 338.123 34.588C338.123 37.148 337.515 39.436 336.299 41.452C335.083 43.436 333.403 45.004 331.259 46.156C329.115 47.308 326.683 47.884 323.963 47.884ZM323.963 41.74C325.211 41.74 326.331 41.452 327.323 40.876C328.315 40.3 329.099 39.484 329.675 38.428C330.251 37.34 330.539 36.06 330.539 34.588C330.539 33.084 330.251 31.804 329.675 30.748C329.099 29.692 328.315 28.876 327.323 28.3C326.331 27.724 325.211 27.436 323.963 27.436C322.715 27.436 321.595 27.724 320.603 28.3C319.611 28.876 318.811 29.692 318.203 30.748C317.627 31.804 317.339 33.084 317.339 34.588C317.339 36.06 317.627 37.34 318.203 38.428C318.811 39.484 319.611 40.3 320.603 40.876C321.595 41.452 322.715 41.74 323.963 41.74ZM358.824 21.292C360.872 21.292 362.696 21.708 364.296 22.54C365.928 23.34 367.208 24.588 368.136 26.284C369.064 27.948 369.528 30.092 369.528 32.716V47.5H362.04V33.868C362.04 31.788 361.576 30.252 360.648 29.26C359.752 28.268 358.472 27.772 356.808 27.772C355.624 27.772 354.552 28.028 353.592 28.54C352.664 29.02 351.928 29.772 351.384 30.796C350.872 31.82 350.616 33.132 350.616 34.732V47.5H343.128V21.676H350.28V28.828L348.936 26.668C349.864 24.94 351.192 23.612 352.92 22.684C354.648 21.756 356.616 21.292 358.824 21.292ZM13.144 106.884C10.936 106.884 8.808 106.628 6.76 106.116C4.744 105.572 3.144 104.9 1.96 104.1L4.456 98.724C5.64 99.46 7.032 100.068 8.632 100.548C10.264 100.996 11.864 101.22 13.432 101.22C15.16 101.22 16.376 101.012 17.08 100.596C17.816 100.18 18.184 99.604 18.184 98.868C18.184 98.26 17.896 97.812 17.32 97.524C16.776 97.204 16.04 96.964 15.112 96.804C14.184 96.644 13.16 96.484 12.04 96.324C10.952 96.164 9.848 95.956 8.728 95.7C7.608 95.412 6.584 94.996 5.656 94.452C4.728 93.908 3.976 93.172 3.4 92.244C2.856 91.316 2.584 90.116 2.584 88.644C2.584 87.012 3.048 85.572 3.976 84.324C4.936 83.076 6.312 82.1 8.104 81.396C9.896 80.66 12.04 80.292 14.536 80.292C16.296 80.292 18.088 80.484 19.912 80.868C21.736 81.252 23.256 81.812 24.472 82.548L21.976 87.876C20.728 87.14 19.464 86.644 18.184 86.388C16.936 86.1 15.72 85.956 14.536 85.956C12.872 85.956 11.656 86.18 10.888 86.628C10.12 87.076 9.736 87.652 9.736 88.356C9.736 88.996 10.008 89.476 10.552 89.796C11.128 90.116 11.88 90.372 12.808 90.564C13.736 90.756 14.744 90.932 15.832 91.092C16.952 91.22 18.072 91.428 19.192 91.716C20.312 92.004 21.32 92.42 22.216 92.964C23.144 93.476 23.896 94.196 24.472 95.124C25.048 96.02 25.336 97.204 25.336 98.676C25.336 100.276 24.856 101.7 23.896 102.948C22.936 104.164 21.544 105.124 19.72 105.828C17.928 106.532 15.736 106.884 13.144 106.884ZM42.244 106.884C39.492 106.884 37.044 106.308 34.9 105.156C32.788 104.004 31.108 102.436 29.86 100.452C28.644 98.436 28.036 96.148 28.036 93.588C28.036 90.996 28.644 88.708 29.86 86.724C31.108 84.708 32.788 83.14 34.9 82.02C37.044 80.868 39.492 80.292 42.244 80.292C44.964 80.292 47.396 80.868 49.54 82.02C51.684 83.14 53.364 84.692 54.58 86.676C55.796 88.66 56.404 90.964 56.404 93.588C56.404 96.148 55.796 98.436 54.58 100.452C53.364 102.436 51.684 104.004 49.54 105.156C47.396 106.308 44.964 106.884 42.244 106.884ZM42.244 100.74C43.492 100.74 44.612 100.452 45.604 99.876C46.596 99.3 47.38 98.484 47.956 97.428C48.532 96.34 48.82 95.06 48.82 93.588C48.82 92.084 48.532 90.804 47.956 89.748C47.38 88.692 46.596 87.876 45.604 87.3C44.612 86.724 43.492 86.436 42.244 86.436C40.996 86.436 39.876 86.724 38.884 87.3C37.892 87.876 37.092 88.692 36.484 89.748C35.908 90.804 35.62 92.084 35.62 93.588C35.62 95.06 35.908 96.34 36.484 97.428C37.092 98.484 37.892 99.3 38.884 99.876C39.876 100.452 40.996 100.74 42.244 100.74ZM73.8891 106.884C71.1051 106.884 68.6251 106.324 66.4491 105.204C64.2731 104.052 62.5611 102.468 61.3131 100.452C60.0971 98.436 59.4891 96.148 59.4891 93.588C59.4891 90.996 60.0971 88.708 61.3131 86.724C62.5611 84.708 64.2731 83.14 66.4491 82.02C68.6251 80.868 71.1051 80.292 73.8891 80.292C76.6091 80.292 78.9771 80.868 80.9931 82.02C83.0091 83.14 84.4971 84.756 85.4571 86.868L79.6491 89.988C78.9771 88.772 78.1291 87.876 77.1051 87.3C76.1131 86.724 75.0251 86.436 73.8411 86.436C72.5611 86.436 71.4091 86.724 70.3851 87.3C69.3611 87.876 68.5451 88.692 67.9371 89.748C67.3611 90.804 67.0731 92.084 67.0731 93.588C67.0731 95.092 67.3611 96.372 67.9371 97.428C68.5451 98.484 69.3611 99.3 70.3851 99.876C71.4091 100.452 72.5611 100.74 73.8411 100.74C75.0251 100.74 76.1131 100.468 77.1051 99.924C78.1291 99.348 78.9771 98.436 79.6491 97.188L85.4571 100.356C84.4971 102.436 83.0091 104.052 80.9931 105.204C78.9771 106.324 76.6091 106.884 73.8891 106.884ZM89.6279 106.5V80.676H97.1159V106.5H89.6279ZM93.3719 77.076C91.9959 77.076 90.8759 76.676 90.0119 75.876C89.1479 75.076 88.7159 74.084 88.7159 72.9C88.7159 71.716 89.1479 70.724 90.0119 69.924C90.8759 69.124 91.9959 68.724 93.3719 68.724C94.7479 68.724 95.8679 69.108 96.7319 69.876C97.5959 70.612 98.0279 71.572 98.0279 72.756C98.0279 74.004 97.5959 75.044 96.7319 75.876C95.8999 76.676 94.7799 77.076 93.3719 77.076ZM119.905 106.5V101.46L119.425 100.356V91.332C119.425 89.732 118.929 88.484 117.937 87.588C116.977 86.692 115.489 86.244 113.473 86.244C112.097 86.244 110.737 86.468 109.393 86.916C108.081 87.332 106.961 87.908 106.033 88.644L103.345 83.412C104.753 82.42 106.449 81.652 108.433 81.108C110.417 80.564 112.433 80.292 114.481 80.292C118.417 80.292 121.473 81.22 123.649 83.076C125.825 84.932 126.913 87.828 126.913 91.764V106.5H119.905ZM112.033 106.884C110.017 106.884 108.289 106.548 106.849 105.876C105.409 105.172 104.305 104.228 103.537 103.044C102.769 101.86 102.385 100.532 102.385 99.06C102.385 97.524 102.753 96.18 103.489 95.028C104.257 93.876 105.457 92.98 107.089 92.34C108.721 91.668 110.849 91.332 113.473 91.332H120.337V95.7H114.289C112.529 95.7 111.313 95.988 110.641 96.564C110.001 97.14 109.681 97.86 109.681 98.724C109.681 99.684 110.049 100.452 110.785 101.028C111.553 101.572 112.593 101.844 113.905 101.844C115.153 101.844 116.273 101.556 117.265 100.98C118.257 100.372 118.977 99.492 119.425 98.34L120.577 101.796C120.033 103.46 119.041 104.724 117.601 105.588C116.161 106.452 114.305 106.884 112.033 106.884ZM133.69 106.5V70.884H141.178V106.5H133.69ZM194.794 80.292C196.842 80.292 198.65 80.708 200.218 81.54C201.818 82.34 203.066 83.588 203.962 85.284C204.89 86.948 205.354 89.092 205.354 91.716V106.5H197.866V92.868C197.866 90.788 197.434 89.252 196.57 88.26C195.706 87.268 194.49 86.772 192.922 86.772C191.834 86.772 190.858 87.028 189.994 87.54C189.13 88.02 188.458 88.756 187.978 89.748C187.498 90.74 187.258 92.004 187.258 93.54V106.5H179.77V92.868C179.77 90.788 179.338 89.252 178.474 88.26C177.642 87.268 176.442 86.772 174.874 86.772C173.786 86.772 172.81 87.028 171.946 87.54C171.082 88.02 170.41 88.756 169.93 89.748C169.45 90.74 169.21 92.004 169.21 93.54V106.5H161.722V80.676H168.874V87.732L167.53 85.668C168.426 83.908 169.69 82.58 171.322 81.684C172.986 80.756 174.874 80.292 176.986 80.292C179.354 80.292 181.418 80.9 183.178 82.116C184.97 83.3 186.154 85.124 186.73 87.588L184.09 86.868C184.954 84.852 186.33 83.252 188.218 82.068C190.138 80.884 192.33 80.292 194.794 80.292ZM225.069 106.884C222.125 106.884 219.533 106.308 217.293 105.156C215.085 104.004 213.373 102.436 212.157 100.452C210.941 98.436 210.333 96.148 210.333 93.588C210.333 90.996 210.925 88.708 212.109 86.724C213.325 84.708 214.973 83.14 217.053 82.02C219.133 80.868 221.485 80.292 224.109 80.292C226.637 80.292 228.909 80.836 230.925 81.924C232.973 82.98 234.589 84.516 235.773 86.532C236.957 88.516 237.549 90.9 237.549 93.684C237.549 93.972 237.533 94.308 237.501 94.692C237.469 95.044 237.437 95.38 237.405 95.7H216.429V91.332H233.469L230.589 92.628C230.589 91.284 230.317 90.116 229.773 89.124C229.229 88.132 228.477 87.364 227.517 86.82C226.557 86.244 225.437 85.956 224.157 85.956C222.877 85.956 221.741 86.244 220.749 86.82C219.789 87.364 219.037 88.148 218.493 89.172C217.949 90.164 217.677 91.348 217.677 92.724V93.876C217.677 95.284 217.981 96.532 218.589 97.62C219.229 98.676 220.109 99.492 221.229 100.068C222.381 100.612 223.725 100.884 225.261 100.884C226.637 100.884 227.837 100.676 228.861 100.26C229.917 99.844 230.877 99.22 231.741 98.388L235.725 102.708C234.541 104.052 233.053 105.092 231.261 105.828C229.469 106.532 227.405 106.884 225.069 106.884ZM253.622 106.884C251.19 106.884 248.998 106.34 247.046 105.252C245.094 104.132 243.542 102.58 242.39 100.596C241.27 98.612 240.71 96.276 240.71 93.588C240.71 90.868 241.27 88.516 242.39 86.532C243.542 84.548 245.094 83.012 247.046 81.924C248.998 80.836 251.19 80.292 253.622 80.292C255.798 80.292 257.702 80.772 259.334 81.732C260.966 82.692 262.23 84.148 263.126 86.1C264.022 88.052 264.47 90.548 264.47 93.588C264.47 96.596 264.038 99.092 263.174 101.076C262.31 103.028 261.062 104.484 259.43 105.444C257.83 106.404 255.894 106.884 253.622 106.884ZM254.918 100.74C256.134 100.74 257.238 100.452 258.23 99.876C259.222 99.3 260.006 98.484 260.582 97.428C261.19 96.34 261.494 95.06 261.494 93.588C261.494 92.084 261.19 90.804 260.582 89.748C260.006 88.692 259.222 87.876 258.23 87.3C257.238 86.724 256.134 86.436 254.918 86.436C253.67 86.436 252.55 86.724 251.558 87.3C250.566 87.876 249.766 88.692 249.158 89.748C248.582 90.804 248.294 92.084 248.294 93.588C248.294 95.06 248.582 96.34 249.158 97.428C249.766 98.484 250.566 99.3 251.558 99.876C252.55 100.452 253.67 100.74 254.918 100.74ZM261.686 106.5V101.22L261.83 93.54L261.35 85.908V70.884H268.838V106.5H261.686ZM275.769 106.5V80.676H283.257V106.5H275.769ZM279.513 77.076C278.137 77.076 277.017 76.676 276.153 75.876C275.289 75.076 274.857 74.084 274.857 72.9C274.857 71.716 275.289 70.724 276.153 69.924C277.017 69.124 278.137 68.724 279.513 68.724C280.889 68.724 282.009 69.108 282.873 69.876C283.737 70.612 284.169 71.572 284.169 72.756C284.169 74.004 283.737 75.044 282.873 75.876C282.041 76.676 280.921 77.076 279.513 77.076ZM306.046 106.5V101.46L305.566 100.356V91.332C305.566 89.732 305.07 88.484 304.078 87.588C303.118 86.692 301.63 86.244 299.614 86.244C298.238 86.244 296.878 86.468 295.534 86.916C294.222 87.332 293.102 87.908 292.174 88.644L289.486 83.412C290.894 82.42 292.59 81.652 294.574 81.108C296.558 80.564 298.574 80.292 300.622 80.292C304.558 80.292 307.614 81.22 309.79 83.076C311.966 84.932 313.054 87.828 313.054 91.764V106.5H306.046ZM298.174 106.884C296.158 106.884 294.43 106.548 292.99 105.876C291.55 105.172 290.446 104.228 289.678 103.044C288.91 101.86 288.526 100.532 288.526 99.06C288.526 97.524 288.894 96.18 289.63 95.028C290.398 93.876 291.598 92.98 293.23 92.34C294.862 91.668 296.99 91.332 299.614 91.332H306.478V95.7H300.43C298.67 95.7 297.454 95.988 296.782 96.564C296.142 97.14 295.822 97.86 295.822 98.724C295.822 99.684 296.19 100.452 296.926 101.028C297.694 101.572 298.734 101.844 300.046 101.844C301.294 101.844 302.414 101.556 303.406 100.98C304.398 100.372 305.118 99.492 305.566 98.34L306.718 101.796C306.174 103.46 305.182 104.724 303.742 105.588C302.302 106.452 300.446 106.884 298.174 106.884ZM322.663 106.884C321.383 106.884 320.279 106.452 319.351 105.588C318.455 104.692 318.007 103.556 318.007 102.18C318.007 100.804 318.455 99.7 319.351 98.868C320.279 98.004 321.383 97.572 322.663 97.572C323.975 97.572 325.079 98.004 325.975 98.868C326.871 99.7 327.319 100.804 327.319 102.18C327.319 103.556 326.871 104.692 325.975 105.588C325.079 106.452 323.975 106.884 322.663 106.884Z" fill="white"/>
<path d="M4.392 145.692C3.63467 145.692 2.936 145.553 2.296 145.276C1.66667 144.988 1.14933 144.583 0.744 144.06L2.184 142.332C2.49333 142.737 2.81867 143.047 3.16 143.26C3.50133 143.463 3.86933 143.564 4.264 143.564C5.32 143.564 5.848 142.945 5.848 141.708V136.38H1.912V134.3H8.424V141.564C8.424 142.951 8.08267 143.985 7.4 144.668C6.71733 145.351 5.71467 145.692 4.392 145.692ZM14.4403 145.628C13.7256 145.628 13.0856 145.489 12.5203 145.212C11.9656 144.935 11.5336 144.513 11.2243 143.948C10.9149 143.372 10.7603 142.641 10.7603 141.756V136.892H13.2563V141.388C13.2563 142.103 13.4056 142.631 13.7043 142.972C14.0136 143.303 14.4456 143.468 15.0003 143.468C15.3843 143.468 15.7256 143.388 16.0243 143.228C16.3229 143.057 16.5576 142.801 16.7283 142.46C16.8989 142.108 16.9843 141.671 16.9843 141.148V136.892H19.4803V145.5H17.1123V143.132L17.5443 143.82C17.2563 144.417 16.8296 144.871 16.2643 145.18C15.7096 145.479 15.1016 145.628 14.4403 145.628ZM24.6886 145.628C23.9526 145.628 23.2433 145.543 22.5606 145.372C21.8886 145.191 21.3553 144.967 20.9606 144.7L21.7926 142.908C22.1873 143.153 22.6513 143.356 23.1846 143.516C23.7286 143.665 24.262 143.74 24.7846 143.74C25.3606 143.74 25.766 143.671 26.0006 143.532C26.246 143.393 26.3686 143.201 26.3686 142.956C26.3686 142.753 26.2726 142.604 26.0806 142.508C25.8993 142.401 25.654 142.321 25.3446 142.268C25.0353 142.215 24.694 142.161 24.3206 142.108C23.958 142.055 23.59 141.985 23.2166 141.9C22.8433 141.804 22.502 141.665 22.1926 141.484C21.8833 141.303 21.6326 141.057 21.4406 140.748C21.2593 140.439 21.1686 140.039 21.1686 139.548C21.1686 139.004 21.3233 138.524 21.6326 138.108C21.9526 137.692 22.4113 137.367 23.0086 137.132C23.606 136.887 24.3206 136.764 25.1526 136.764C25.7393 136.764 26.3366 136.828 26.9446 136.956C27.5526 137.084 28.0593 137.271 28.4646 137.516L27.6326 139.292C27.2166 139.047 26.7953 138.881 26.3686 138.796C25.9526 138.7 25.5473 138.652 25.1526 138.652C24.598 138.652 24.1926 138.727 23.9366 138.876C23.6806 139.025 23.5526 139.217 23.5526 139.452C23.5526 139.665 23.6433 139.825 23.8246 139.932C24.0166 140.039 24.2673 140.124 24.5766 140.188C24.886 140.252 25.222 140.311 25.5846 140.364C25.958 140.407 26.3313 140.476 26.7046 140.572C27.078 140.668 27.414 140.807 27.7126 140.988C28.022 141.159 28.2726 141.399 28.4646 141.708C28.6566 142.007 28.7526 142.401 28.7526 142.892C28.7526 143.425 28.5926 143.9 28.2726 144.316C27.9526 144.721 27.4886 145.041 26.8806 145.276C26.2833 145.511 25.5526 145.628 24.6886 145.628ZM33.8126 145.628C32.7993 145.628 32.01 145.372 31.4446 144.86C30.8793 144.337 30.5966 143.564 30.5966 142.54V134.988H33.0926V142.508C33.0926 142.871 33.1886 143.153 33.3806 143.356C33.5726 143.548 33.834 143.644 34.1646 143.644C34.5593 143.644 34.8953 143.537 35.1726 143.324L35.8446 145.084C35.5886 145.265 35.2793 145.404 34.9166 145.5C34.5646 145.585 34.1966 145.628 33.8126 145.628ZM29.2686 139.004V137.084H35.2366V139.004H29.2686ZM45.297 145.628C44.2837 145.628 43.4943 145.372 42.929 144.86C42.3637 144.337 42.081 143.564 42.081 142.54V134.988H44.577V142.508C44.577 142.871 44.673 143.153 44.865 143.356C45.057 143.548 45.3183 143.644 45.649 143.644C46.0437 143.644 46.3797 143.537 46.657 143.324L47.329 145.084C47.073 145.265 46.7637 145.404 46.401 145.5C46.049 145.585 45.681 145.628 45.297 145.628ZM40.753 139.004V137.084H46.721V139.004H40.753ZM54.0101 145.5V143.82L53.8501 143.452V140.444C53.8501 139.911 53.6848 139.495 53.3541 139.196C53.0341 138.897 52.5381 138.748 51.8661 138.748C51.4075 138.748 50.9541 138.823 50.5061 138.972C50.0688 139.111 49.6955 139.303 49.3861 139.548L48.4901 137.804C48.9595 137.473 49.5248 137.217 50.1861 137.036C50.8475 136.855 51.5195 136.764 52.2021 136.764C53.5141 136.764 54.5328 137.073 55.2581 137.692C55.9835 138.311 56.3461 139.276 56.3461 140.588V145.5H54.0101ZM51.3861 145.628C50.7141 145.628 50.1381 145.516 49.6581 145.292C49.1781 145.057 48.8101 144.743 48.5541 144.348C48.2981 143.953 48.1701 143.511 48.1701 143.02C48.1701 142.508 48.2928 142.06 48.5381 141.676C48.7941 141.292 49.1941 140.993 49.7381 140.78C50.2821 140.556 50.9915 140.444 51.8661 140.444H54.1541V141.9H52.1381C51.5515 141.9 51.1461 141.996 50.9221 142.188C50.7088 142.38 50.6021 142.62 50.6021 142.908C50.6021 143.228 50.7248 143.484 50.9701 143.676C51.2261 143.857 51.5728 143.948 52.0101 143.948C52.4261 143.948 52.7995 143.852 53.1301 143.66C53.4608 143.457 53.7008 143.164 53.8501 142.78L54.2341 143.932C54.0528 144.487 53.7221 144.908 53.2421 145.196C52.7621 145.484 52.1435 145.628 51.3861 145.628ZM63.6931 145.628C62.9678 145.628 62.3331 145.468 61.7891 145.148C61.2451 144.828 60.8185 144.343 60.5091 143.692C60.2105 143.031 60.0611 142.199 60.0611 141.196C60.0611 140.183 60.2051 139.351 60.4931 138.7C60.7811 138.049 61.1971 137.564 61.7411 137.244C62.2851 136.924 62.9358 136.764 63.6931 136.764C64.5038 136.764 65.2291 136.951 65.8691 137.324C66.5198 137.687 67.0318 138.199 67.4051 138.86C67.7891 139.521 67.9811 140.3 67.9811 141.196C67.9811 142.103 67.7891 142.887 67.4051 143.548C67.0318 144.209 66.5198 144.721 65.8691 145.084C65.2291 145.447 64.5038 145.628 63.6931 145.628ZM58.6051 148.604V136.892H60.9891V138.652L60.9411 141.212L61.1011 143.756V148.604H58.6051ZM63.2611 143.58C63.6771 143.58 64.0451 143.484 64.3651 143.292C64.6958 143.1 64.9571 142.828 65.1491 142.476C65.3518 142.113 65.4531 141.687 65.4531 141.196C65.4531 140.695 65.3518 140.268 65.1491 139.916C64.9571 139.564 64.6958 139.292 64.3651 139.1C64.0451 138.908 63.6771 138.812 63.2611 138.812C62.8451 138.812 62.4718 138.908 62.1411 139.1C61.8105 139.292 61.5491 139.564 61.3571 139.916C61.1651 140.268 61.0691 140.695 61.0691 141.196C61.0691 141.687 61.1651 142.113 61.3571 142.476C61.5491 142.828 61.8105 143.1 62.1411 143.292C62.4718 143.484 62.8451 143.58 63.2611 143.58ZM79.4633 145.5V143.82L79.3033 143.452V140.444C79.3033 139.911 79.1379 139.495 78.8073 139.196C78.4873 138.897 77.9913 138.748 77.3193 138.748C76.8606 138.748 76.4073 138.823 75.9593 138.972C75.5219 139.111 75.1486 139.303 74.8393 139.548L73.9433 137.804C74.4126 137.473 74.9779 137.217 75.6393 137.036C76.3006 136.855 76.9726 136.764 77.6553 136.764C78.9673 136.764 79.9859 137.073 80.7113 137.692C81.4366 138.311 81.7993 139.276 81.7993 140.588V145.5H79.4633ZM76.8393 145.628C76.1673 145.628 75.5913 145.516 75.1113 145.292C74.6313 145.057 74.2633 144.743 74.0073 144.348C73.7513 143.953 73.6233 143.511 73.6233 143.02C73.6233 142.508 73.7459 142.06 73.9913 141.676C74.2473 141.292 74.6473 140.993 75.1913 140.78C75.7353 140.556 76.4446 140.444 77.3193 140.444H79.6073V141.9H77.5913C77.0046 141.9 76.5993 141.996 76.3753 142.188C76.1619 142.38 76.0553 142.62 76.0553 142.908C76.0553 143.228 76.1779 143.484 76.4233 143.676C76.6793 143.857 77.0259 143.948 77.4633 143.948C77.8793 143.948 78.2526 143.852 78.5833 143.66C78.9139 143.457 79.1539 143.164 79.3033 142.78L79.6873 143.932C79.5059 144.487 79.1753 144.908 78.6953 145.196C78.2153 145.484 77.5966 145.628 76.8393 145.628ZM89.2903 136.764C89.9729 136.764 90.5809 136.903 91.1143 137.18C91.6583 137.447 92.0849 137.863 92.3943 138.428C92.7036 138.983 92.8583 139.697 92.8583 140.572V145.5H90.3623V140.956C90.3623 140.263 90.2076 139.751 89.8983 139.42C89.5996 139.089 89.1729 138.924 88.6183 138.924C88.2236 138.924 87.8663 139.009 87.5463 139.18C87.2369 139.34 86.9916 139.591 86.8103 139.932C86.6396 140.273 86.5543 140.711 86.5543 141.244V145.5H84.0583V136.892H86.4423V139.276L85.9943 138.556C86.3036 137.98 86.7463 137.537 87.3223 137.228C87.8983 136.919 88.5543 136.764 89.2903 136.764ZM96.0525 148.732C95.6045 148.732 95.1618 148.663 94.7245 148.524C94.2872 148.385 93.9298 148.193 93.6525 147.948L94.5645 146.172C94.7565 146.343 94.9752 146.476 95.2205 146.572C95.4765 146.668 95.7272 146.716 95.9725 146.716C96.3245 146.716 96.6018 146.631 96.8045 146.46C97.0178 146.3 97.2098 146.028 97.3805 145.644L97.8285 144.588L98.0205 144.316L101.109 136.892H103.509L99.6205 146.028C99.3432 146.721 99.0232 147.265 98.6605 147.66C98.3085 148.055 97.9138 148.332 97.4765 148.492C97.0498 148.652 96.5752 148.732 96.0525 148.732ZM97.5245 145.836L93.6845 136.892H96.2605L99.2365 144.092L97.5245 145.836ZM109.058 145.5V136.892H111.554V145.5H109.058ZM110.306 135.692C109.848 135.692 109.474 135.559 109.186 135.292C108.898 135.025 108.754 134.695 108.754 134.3C108.754 133.905 108.898 133.575 109.186 133.308C109.474 133.041 109.848 132.908 110.306 132.908C110.765 132.908 111.138 133.036 111.426 133.292C111.714 133.537 111.858 133.857 111.858 134.252C111.858 134.668 111.714 135.015 111.426 135.292C111.149 135.559 110.776 135.692 110.306 135.692ZM118.031 145.628C117.103 145.628 116.276 145.441 115.551 145.068C114.825 144.684 114.255 144.156 113.839 143.484C113.433 142.812 113.231 142.049 113.231 141.196C113.231 140.332 113.433 139.569 113.839 138.908C114.255 138.236 114.825 137.713 115.551 137.34C116.276 136.956 117.103 136.764 118.031 136.764C118.937 136.764 119.727 136.956 120.399 137.34C121.071 137.713 121.567 138.252 121.887 138.956L119.951 139.996C119.727 139.591 119.444 139.292 119.103 139.1C118.772 138.908 118.409 138.812 118.015 138.812C117.588 138.812 117.204 138.908 116.863 139.1C116.521 139.292 116.249 139.564 116.047 139.916C115.855 140.268 115.759 140.695 115.759 141.196C115.759 141.697 115.855 142.124 116.047 142.476C116.249 142.828 116.521 143.1 116.863 143.292C117.204 143.484 117.588 143.58 118.015 143.58C118.409 143.58 118.772 143.489 119.103 143.308C119.444 143.116 119.727 142.812 119.951 142.396L121.887 143.452C121.567 144.145 121.071 144.684 120.399 145.068C119.727 145.441 118.937 145.628 118.031 145.628ZM127.311 145.628C126.393 145.628 125.577 145.436 124.863 145.052C124.159 144.668 123.599 144.145 123.183 143.484C122.777 142.812 122.575 142.049 122.575 141.196C122.575 140.332 122.777 139.569 123.183 138.908C123.599 138.236 124.159 137.713 124.863 137.34C125.577 136.956 126.393 136.764 127.311 136.764C128.217 136.764 129.028 136.956 129.743 137.34C130.457 137.713 131.017 138.231 131.423 138.892C131.828 139.553 132.031 140.321 132.031 141.196C132.031 142.049 131.828 142.812 131.423 143.484C131.017 144.145 130.457 144.668 129.743 145.052C129.028 145.436 128.217 145.628 127.311 145.628ZM127.311 143.58C127.727 143.58 128.1 143.484 128.431 143.292C128.761 143.1 129.023 142.828 129.215 142.476C129.407 142.113 129.503 141.687 129.503 141.196C129.503 140.695 129.407 140.268 129.215 139.916C129.023 139.564 128.761 139.292 128.431 139.1C128.1 138.908 127.727 138.812 127.311 138.812C126.895 138.812 126.521 138.908 126.191 139.1C125.86 139.292 125.593 139.564 125.391 139.916C125.199 140.268 125.103 140.695 125.103 141.196C125.103 141.687 125.199 142.113 125.391 142.476C125.593 142.828 125.86 143.1 126.191 143.292C126.521 143.484 126.895 143.58 127.311 143.58ZM138.931 136.764C139.614 136.764 140.222 136.903 140.755 137.18C141.299 137.447 141.726 137.863 142.035 138.428C142.344 138.983 142.499 139.697 142.499 140.572V145.5H140.003V140.956C140.003 140.263 139.848 139.751 139.539 139.42C139.24 139.089 138.814 138.924 138.259 138.924C137.864 138.924 137.507 139.009 137.187 139.18C136.878 139.34 136.632 139.591 136.451 139.932C136.28 140.273 136.195 140.711 136.195 141.244V145.5H133.699V136.892H136.083V139.276L135.635 138.556C135.944 137.98 136.387 137.537 136.963 137.228C137.539 136.919 138.195 136.764 138.931 136.764ZM153.389 145.628C152.471 145.628 151.655 145.436 150.941 145.052C150.237 144.668 149.677 144.145 149.261 143.484C148.855 142.812 148.653 142.049 148.653 141.196C148.653 140.332 148.855 139.569 149.261 138.908C149.677 138.236 150.237 137.713 150.941 137.34C151.655 136.956 152.471 136.764 153.389 136.764C154.295 136.764 155.106 136.956 155.821 137.34C156.535 137.713 157.095 138.231 157.501 138.892C157.906 139.553 158.109 140.321 158.109 141.196C158.109 142.049 157.906 142.812 157.501 143.484C157.095 144.145 156.535 144.668 155.821 145.052C155.106 145.436 154.295 145.628 153.389 145.628ZM153.389 143.58C153.805 143.58 154.178 143.484 154.509 143.292C154.839 143.1 155.101 142.828 155.293 142.476C155.485 142.113 155.581 141.687 155.581 141.196C155.581 140.695 155.485 140.268 155.293 139.916C155.101 139.564 154.839 139.292 154.509 139.1C154.178 138.908 153.805 138.812 153.389 138.812C152.973 138.812 152.599 138.908 152.269 139.1C151.938 139.292 151.671 139.564 151.469 139.916C151.277 140.268 151.181 140.695 151.181 141.196C151.181 141.687 151.277 142.113 151.469 142.476C151.671 142.828 151.938 143.1 152.269 143.292C152.599 143.484 152.973 143.58 153.389 143.58ZM165.009 136.764C165.692 136.764 166.3 136.903 166.833 137.18C167.377 137.447 167.804 137.863 168.113 138.428C168.422 138.983 168.577 139.697 168.577 140.572V145.5H166.081V140.956C166.081 140.263 165.926 139.751 165.617 139.42C165.318 139.089 164.892 138.924 164.337 138.924C163.942 138.924 163.585 139.009 163.265 139.18C162.956 139.34 162.71 139.591 162.529 139.932C162.358 140.273 162.273 140.711 162.273 141.244V145.5H159.777V136.892H162.161V139.276L161.713 138.556C162.022 137.98 162.465 137.537 163.041 137.228C163.617 136.919 164.273 136.764 165.009 136.764ZM178.891 145.628C177.877 145.628 177.088 145.372 176.523 144.86C175.957 144.337 175.675 143.564 175.675 142.54V134.988H178.171V142.508C178.171 142.871 178.267 143.153 178.459 143.356C178.651 143.548 178.912 143.644 179.243 143.644C179.637 143.644 179.973 143.537 180.251 143.324L180.923 145.084C180.667 145.265 180.357 145.404 179.995 145.5C179.643 145.585 179.275 145.628 178.891 145.628ZM174.347 139.004V137.084H180.315V139.004H174.347ZM187.556 136.764C188.239 136.764 188.847 136.903 189.38 137.18C189.924 137.447 190.351 137.863 190.66 138.428C190.969 138.983 191.124 139.697 191.124 140.572V145.5H188.628V140.956C188.628 140.263 188.473 139.751 188.164 139.42C187.865 139.089 187.439 138.924 186.884 138.924C186.489 138.924 186.132 139.009 185.812 139.18C185.503 139.34 185.257 139.591 185.076 139.932C184.905 140.273 184.82 140.711 184.82 141.244V145.5H182.324V133.628H184.82V139.276L184.26 138.556C184.569 137.98 185.012 137.537 185.588 137.228C186.164 136.919 186.82 136.764 187.556 136.764ZM197.721 145.628C196.74 145.628 195.876 145.436 195.129 145.052C194.393 144.668 193.822 144.145 193.417 143.484C193.012 142.812 192.809 142.049 192.809 141.196C192.809 140.332 193.006 139.569 193.401 138.908C193.806 138.236 194.356 137.713 195.049 137.34C195.742 136.956 196.526 136.764 197.401 136.764C198.244 136.764 199.001 136.945 199.673 137.308C200.356 137.66 200.894 138.172 201.289 138.844C201.684 139.505 201.881 140.3 201.881 141.228C201.881 141.324 201.876 141.436 201.865 141.564C201.854 141.681 201.844 141.793 201.833 141.9H194.841V140.444H200.521L199.561 140.876C199.561 140.428 199.47 140.039 199.289 139.708C199.108 139.377 198.857 139.121 198.537 138.94C198.217 138.748 197.844 138.652 197.417 138.652C196.99 138.652 196.612 138.748 196.281 138.94C195.961 139.121 195.71 139.383 195.529 139.724C195.348 140.055 195.257 140.449 195.257 140.908V141.292C195.257 141.761 195.358 142.177 195.561 142.54C195.774 142.892 196.068 143.164 196.441 143.356C196.825 143.537 197.273 143.628 197.785 143.628C198.244 143.628 198.644 143.559 198.985 143.42C199.337 143.281 199.657 143.073 199.945 142.796L201.273 144.236C200.878 144.684 200.382 145.031 199.785 145.276C199.188 145.511 198.5 145.628 197.721 145.628ZM2.152 165.5V156.892H4.536V159.324L4.2 158.62C4.456 158.012 4.86667 157.553 5.432 157.244C5.99733 156.924 6.68533 156.764 7.496 156.764V159.068C7.38933 159.057 7.29333 159.052 7.208 159.052C7.12267 159.041 7.032 159.036 6.936 159.036C6.25333 159.036 5.69867 159.233 5.272 159.628C4.856 160.012 4.648 160.615 4.648 161.436V165.5H2.152ZM8.99575 165.5V156.892H11.4918V165.5H8.99575ZM10.2438 155.692C9.78508 155.692 9.41175 155.559 9.12375 155.292C8.83575 155.025 8.69175 154.695 8.69175 154.3C8.69175 153.905 8.83575 153.575 9.12375 153.308C9.41175 153.041 9.78508 152.908 10.2438 152.908C10.7024 152.908 11.0758 153.036 11.3638 153.292C11.6518 153.537 11.7958 153.857 11.7958 154.252C11.7958 154.668 11.6518 155.015 11.3638 155.292C11.0864 155.559 10.7131 155.692 10.2438 155.692ZM17.8563 168.732C17.0456 168.732 16.2616 168.631 15.5043 168.428C14.7576 168.236 14.1336 167.943 13.6323 167.548L14.6243 165.756C14.9869 166.055 15.4456 166.289 16.0003 166.46C16.5656 166.641 17.1203 166.732 17.6643 166.732C18.5496 166.732 19.1896 166.535 19.5843 166.14C19.9896 165.745 20.1923 165.159 20.1923 164.38V163.084L20.3523 160.924L20.3203 158.748V156.892H22.6883V164.06C22.6883 165.66 22.2723 166.839 21.4403 167.596C20.6083 168.353 19.4136 168.732 17.8563 168.732ZM17.4723 165.084C16.6723 165.084 15.9469 164.913 15.2963 164.572C14.6563 164.22 14.1389 163.735 13.7443 163.116C13.3603 162.487 13.1683 161.756 13.1683 160.924C13.1683 160.081 13.3603 159.351 13.7443 158.732C14.1389 158.103 14.6563 157.617 15.2963 157.276C15.9469 156.935 16.6723 156.764 17.4723 156.764C18.1976 156.764 18.8376 156.913 19.3923 157.212C19.9469 157.5 20.3789 157.953 20.6883 158.572C20.9976 159.18 21.1523 159.964 21.1523 160.924C21.1523 161.873 20.9976 162.657 20.6883 163.276C20.3789 163.884 19.9469 164.337 19.3923 164.636C18.8376 164.935 18.1976 165.084 17.4723 165.084ZM17.9683 163.036C18.4056 163.036 18.7949 162.951 19.1363 162.78C19.4776 162.599 19.7443 162.348 19.9363 162.028C20.1283 161.708 20.2243 161.34 20.2243 160.924C20.2243 160.497 20.1283 160.129 19.9363 159.82C19.7443 159.5 19.4776 159.255 19.1363 159.084C18.7949 158.903 18.4056 158.812 17.9683 158.812C17.5309 158.812 17.1416 158.903 16.8003 159.084C16.4589 159.255 16.1869 159.5 15.9843 159.82C15.7923 160.129 15.6963 160.497 15.6963 160.924C15.6963 161.34 15.7923 161.708 15.9843 162.028C16.1869 162.348 16.4589 162.599 16.8003 162.78C17.1416 162.951 17.5309 163.036 17.9683 163.036ZM30.2434 156.764C30.926 156.764 31.534 156.903 32.0674 157.18C32.6114 157.447 33.038 157.863 33.3474 158.428C33.6567 158.983 33.8114 159.697 33.8114 160.572V165.5H31.3154V160.956C31.3154 160.263 31.1607 159.751 30.8514 159.42C30.5527 159.089 30.126 158.924 29.5714 158.924C29.1767 158.924 28.8194 159.009 28.4994 159.18C28.19 159.34 27.9447 159.591 27.7634 159.932C27.5927 160.273 27.5074 160.711 27.5074 161.244V165.5H25.0114V153.628H27.5074V159.276L26.9474 158.556C27.2567 157.98 27.6994 157.537 28.2754 157.228C28.8514 156.919 29.5074 156.764 30.2434 156.764ZM39.5939 165.628C38.5805 165.628 37.7912 165.372 37.2259 164.86C36.6605 164.337 36.3779 163.564 36.3779 162.54V154.988H38.8739V162.508C38.8739 162.871 38.9699 163.153 39.1619 163.356C39.3539 163.548 39.6152 163.644 39.9459 163.644C40.3405 163.644 40.6765 163.537 40.9539 163.324L41.6259 165.084C41.3699 165.265 41.0605 165.404 40.6979 165.5C40.3459 165.585 39.9779 165.628 39.5939 165.628ZM35.0499 159.004V157.084H41.0179V159.004H35.0499ZM52.7903 156.764C53.4729 156.764 54.0809 156.903 54.6143 157.18C55.1583 157.447 55.5849 157.863 55.8943 158.428C56.2036 158.983 56.3583 159.697 56.3583 160.572V165.5H53.8623V160.956C53.8623 160.263 53.7076 159.751 53.3983 159.42C53.0996 159.089 52.6729 158.924 52.1183 158.924C51.7236 158.924 51.3663 159.009 51.0463 159.18C50.7369 159.34 50.4916 159.591 50.3103 159.932C50.1396 160.273 50.0543 160.711 50.0543 161.244V165.5H47.5583V153.628H50.0543V159.276L49.4943 158.556C49.8036 157.98 50.2463 157.537 50.8223 157.228C51.3983 156.919 52.0543 156.764 52.7903 156.764ZM63.9008 165.5V163.82L63.7408 163.452V160.444C63.7408 159.911 63.5754 159.495 63.2448 159.196C62.9248 158.897 62.4288 158.748 61.7568 158.748C61.2981 158.748 60.8448 158.823 60.3968 158.972C59.9594 159.111 59.5861 159.303 59.2768 159.548L58.3808 157.804C58.8501 157.473 59.4154 157.217 60.0768 157.036C60.7381 156.855 61.4101 156.764 62.0928 156.764C63.4048 156.764 64.4234 157.073 65.1488 157.692C65.8741 158.311 66.2368 159.276 66.2368 160.588V165.5H63.9008ZM61.2768 165.628C60.6048 165.628 60.0288 165.516 59.5488 165.292C59.0688 165.057 58.7008 164.743 58.4448 164.348C58.1888 163.953 58.0608 163.511 58.0608 163.02C58.0608 162.508 58.1834 162.06 58.4288 161.676C58.6848 161.292 59.0848 160.993 59.6288 160.78C60.1728 160.556 60.8821 160.444 61.7568 160.444H64.0448V161.9H62.0288C61.4421 161.9 61.0368 161.996 60.8128 162.188C60.5994 162.38 60.4928 162.62 60.4928 162.908C60.4928 163.228 60.6154 163.484 60.8608 163.676C61.1168 163.857 61.4634 163.948 61.9008 163.948C62.3168 163.948 62.6901 163.852 63.0208 163.66C63.3514 163.457 63.5914 163.164 63.7408 162.78L64.1248 163.932C63.9434 164.487 63.6128 164.908 63.1328 165.196C62.6528 165.484 62.0341 165.628 61.2768 165.628ZM73.7278 156.764C74.4104 156.764 75.0184 156.903 75.5518 157.18C76.0958 157.447 76.5224 157.863 76.8318 158.428C77.1411 158.983 77.2958 159.697 77.2958 160.572V165.5H74.7998V160.956C74.7998 160.263 74.6451 159.751 74.3358 159.42C74.0371 159.089 73.6104 158.924 73.0558 158.924C72.6611 158.924 72.3038 159.009 71.9838 159.18C71.6744 159.34 71.4291 159.591 71.2478 159.932C71.0771 160.273 70.9918 160.711 70.9918 161.244V165.5H68.4958V156.892H70.8798V159.276L70.4318 158.556C70.7411 157.98 71.1838 157.537 71.7598 157.228C72.3358 156.919 72.9918 156.764 73.7278 156.764ZM83.3168 165.628C82.5061 165.628 81.7754 165.447 81.1248 165.084C80.4741 164.711 79.9568 164.193 79.5728 163.532C79.1994 162.871 79.0128 162.092 79.0128 161.196C79.0128 160.289 79.1994 159.505 79.5728 158.844C79.9568 158.183 80.4741 157.671 81.1248 157.308C81.7754 156.945 82.5061 156.764 83.3168 156.764C84.0421 156.764 84.6768 156.924 85.2208 157.244C85.7648 157.564 86.1861 158.049 86.4848 158.7C86.7834 159.351 86.9328 160.183 86.9328 161.196C86.9328 162.199 86.7888 163.031 86.5008 163.692C86.2128 164.343 85.7968 164.828 85.2528 165.148C84.7194 165.468 84.0741 165.628 83.3168 165.628ZM83.7488 163.58C84.1541 163.58 84.5221 163.484 84.8528 163.292C85.1834 163.1 85.4448 162.828 85.6368 162.476C85.8394 162.113 85.9408 161.687 85.9408 161.196C85.9408 160.695 85.8394 160.268 85.6368 159.916C85.4448 159.564 85.1834 159.292 84.8528 159.1C84.5221 158.908 84.1541 158.812 83.7488 158.812C83.3328 158.812 82.9594 158.908 82.6288 159.1C82.2981 159.292 82.0314 159.564 81.8288 159.916C81.6368 160.268 81.5408 160.695 81.5408 161.196C81.5408 161.687 81.6368 162.113 81.8288 162.476C82.0314 162.828 82.2981 163.1 82.6288 163.292C82.9594 163.484 83.3328 163.58 83.7488 163.58ZM86.0048 165.5V163.74L86.0528 161.18L85.8928 158.636V153.628H88.3888V165.5H86.0048ZM98.1261 165.628C97.3901 165.628 96.6808 165.543 95.9981 165.372C95.3261 165.191 94.7928 164.967 94.3981 164.7L95.2301 162.908C95.6248 163.153 96.0888 163.356 96.6221 163.516C97.1661 163.665 97.6995 163.74 98.2221 163.74C98.7981 163.74 99.2035 163.671 99.4381 163.532C99.6835 163.393 99.8061 163.201 99.8061 162.956C99.8061 162.753 99.7101 162.604 99.5181 162.508C99.3368 162.401 99.0915 162.321 98.7821 162.268C98.4728 162.215 98.1315 162.161 97.7581 162.108C97.3955 162.055 97.0275 161.985 96.6541 161.9C96.2808 161.804 95.9395 161.665 95.6301 161.484C95.3208 161.303 95.0701 161.057 94.8781 160.748C94.6968 160.439 94.6061 160.039 94.6061 159.548C94.6061 159.004 94.7608 158.524 95.0701 158.108C95.3901 157.692 95.8488 157.367 96.4461 157.132C97.0435 156.887 97.7581 156.764 98.5901 156.764C99.1768 156.764 99.7741 156.828 100.382 156.956C100.99 157.084 101.497 157.271 101.902 157.516L101.07 159.292C100.654 159.047 100.233 158.881 99.8061 158.796C99.3901 158.7 98.9848 158.652 98.5901 158.652C98.0355 158.652 97.6301 158.727 97.3741 158.876C97.1181 159.025 96.9901 159.217 96.9901 159.452C96.9901 159.665 97.0808 159.825 97.2621 159.932C97.4541 160.039 97.7048 160.124 98.0141 160.188C98.3235 160.252 98.6595 160.311 99.0221 160.364C99.3955 160.407 99.7688 160.476 100.142 160.572C100.515 160.668 100.851 160.807 101.15 160.988C101.459 161.159 101.71 161.399 101.902 161.708C102.094 162.007 102.19 162.401 102.19 162.892C102.19 163.425 102.03 163.9 101.71 164.316C101.39 164.721 100.926 165.041 100.318 165.276C99.7208 165.511 98.9901 165.628 98.1261 165.628ZM103.73 165.5V156.892H106.226V165.5H103.73ZM104.978 155.692C104.519 155.692 104.146 155.559 103.858 155.292C103.57 155.025 103.426 154.695 103.426 154.3C103.426 153.905 103.57 153.575 103.858 153.308C104.146 153.041 104.519 152.908 104.978 152.908C105.437 152.908 105.81 153.036 106.098 153.292C106.386 153.537 106.53 153.857 106.53 154.252C106.53 154.668 106.386 155.015 106.098 155.292C105.821 155.559 105.447 155.692 104.978 155.692ZM112.239 165.628C111.428 165.628 110.697 165.447 110.047 165.084C109.396 164.711 108.879 164.193 108.495 163.532C108.121 162.871 107.935 162.092 107.935 161.196C107.935 160.289 108.121 159.505 108.495 158.844C108.879 158.183 109.396 157.671 110.047 157.308C110.697 156.945 111.428 156.764 112.239 156.764C112.964 156.764 113.599 156.924 114.143 157.244C114.687 157.564 115.108 158.049 115.407 158.7C115.705 159.351 115.855 160.183 115.855 161.196C115.855 162.199 115.711 163.031 115.423 163.692C115.135 164.343 114.719 164.828 114.175 165.148C113.641 165.468 112.996 165.628 112.239 165.628ZM112.671 163.58C113.076 163.58 113.444 163.484 113.775 163.292C114.105 163.1 114.367 162.828 114.559 162.476C114.761 162.113 114.863 161.687 114.863 161.196C114.863 160.695 114.761 160.268 114.559 159.916C114.367 159.564 114.105 159.292 113.775 159.1C113.444 158.908 113.076 158.812 112.671 158.812C112.255 158.812 111.881 158.908 111.551 159.1C111.22 159.292 110.953 159.564 110.751 159.916C110.559 160.268 110.463 160.695 110.463 161.196C110.463 161.687 110.559 162.113 110.751 162.476C110.953 162.828 111.22 163.1 111.551 163.292C111.881 163.484 112.255 163.58 112.671 163.58ZM114.927 165.5V163.74L114.975 161.18L114.815 158.636V153.628H117.311V165.5H114.927ZM123.893 165.628C122.911 165.628 122.047 165.436 121.301 165.052C120.565 164.668 119.994 164.145 119.589 163.484C119.183 162.812 118.981 162.049 118.981 161.196C118.981 160.332 119.178 159.569 119.573 158.908C119.978 158.236 120.527 157.713 121.221 157.34C121.914 156.956 122.698 156.764 123.573 156.764C124.415 156.764 125.173 156.945 125.845 157.308C126.527 157.66 127.066 158.172 127.461 158.844C127.855 159.505 128.053 160.3 128.053 161.228C128.053 161.324 128.047 161.436 128.037 161.564C128.026 161.681 128.015 161.793 128.005 161.9H121.013V160.444H126.693L125.733 160.876C125.733 160.428 125.642 160.039 125.461 159.708C125.279 159.377 125.029 159.121 124.709 158.94C124.389 158.748 124.015 158.652 123.589 158.652C123.162 158.652 122.783 158.748 122.453 158.94C122.133 159.121 121.882 159.383 121.701 159.724C121.519 160.055 121.429 160.449 121.429 160.908V161.292C121.429 161.761 121.53 162.177 121.733 162.54C121.946 162.892 122.239 163.164 122.613 163.356C122.997 163.537 123.445 163.628 123.957 163.628C124.415 163.628 124.815 163.559 125.157 163.42C125.509 163.281 125.829 163.073 126.117 162.796L127.445 164.236C127.05 164.684 126.554 165.031 125.957 165.276C125.359 165.511 124.671 165.628 123.893 165.628Z" fill="white"/>
</svg>
