<svg width="123" height="13" viewBox="0 0 123 13" fill="none" xmlns="http://www.w3.org/2000/svg">
<path d="M1.84446 1.09091V12H0.198509V1.09091H1.84446ZM7.77308 12H4.24148V1.09091H7.88494C8.95384 1.09091 9.8718 1.3093 10.6388 1.74609C11.4059 2.17933 11.9936 2.80256 12.402 3.61577C12.8139 4.42543 13.0199 5.39666 13.0199 6.52947C13.0199 7.66584 12.8121 8.6424 12.3967 9.45916C11.9847 10.2759 11.3881 10.9045 10.6069 11.3448C9.82564 11.7816 8.88104 12 7.77308 12ZM5.88743 10.5618H7.68253C8.51349 10.5618 9.20419 10.4055 9.75462 10.093C10.305 9.77699 10.717 9.32067 10.9904 8.72408C11.2638 8.12393 11.4006 7.3924 11.4006 6.52947C11.4006 5.67365 11.2638 4.94744 10.9904 4.35085C10.7205 3.75426 10.3175 3.30149 9.78125 2.99254C9.24503 2.68359 8.57919 2.52912 7.78374 2.52912H5.88743V10.5618ZM15.0667 12V1.09091H21.9062V2.50781H16.7126V5.83168H21.5493V7.24325H16.7126V10.5831H21.9701V12H15.0667ZM25.0263 12H23.2791L27.2049 1.09091H29.1065L33.0323 12H31.2852L28.201 3.07244H28.1158L25.0263 12ZM25.3192 7.72798H30.9869V9.11293H25.3192V7.72798ZM40.4697 3.95668C40.4129 3.45241 40.1785 3.06179 39.7666 2.7848C39.3547 2.50426 38.8362 2.36399 38.2112 2.36399C37.7638 2.36399 37.3767 2.43501 37.05 2.57706C36.7233 2.71555 36.4694 2.90732 36.2883 3.15234C36.1107 3.39382 36.0219 3.66903 36.0219 3.97798C36.0219 4.23722 36.0823 4.46094 36.203 4.64915C36.3273 4.83736 36.4889 4.99538 36.6878 5.12322C36.8902 5.24751 37.1068 5.35227 37.3376 5.4375C37.5684 5.51918 37.7904 5.58665 38.0035 5.63991L39.0688 5.9169C39.4168 6.00213 39.7737 6.11754 40.1395 6.26314C40.5052 6.40874 40.8444 6.6005 41.1569 6.83842C41.4694 7.07635 41.7215 7.37109 41.9133 7.72266C42.1086 8.07422 42.2062 8.49503 42.2062 8.98509C42.2062 9.60298 42.0464 10.1516 41.7268 10.631C41.4108 11.1104 40.9509 11.4886 40.3472 11.7656C39.7471 12.0426 39.0209 12.1811 38.1686 12.1811C37.3518 12.1811 36.6452 12.0515 36.0486 11.7923C35.452 11.533 34.985 11.1655 34.6476 10.6896C34.3103 10.2102 34.1238 9.64205 34.0883 8.98509H35.7396C35.7716 9.37926 35.8994 9.70774 36.1231 9.97053C36.3504 10.2298 36.6398 10.4233 36.9914 10.5511C37.3465 10.6754 37.7354 10.7376 38.1579 10.7376C38.6231 10.7376 39.0368 10.6648 39.3991 10.5192C39.7648 10.37 40.0525 10.1641 40.262 9.90128C40.4715 9.63494 40.5763 9.32422 40.5763 8.9691C40.5763 8.64595 40.4839 8.38139 40.2993 8.17543C40.1182 7.96946 39.8714 7.79901 39.5589 7.66406C39.2499 7.52912 38.9001 7.41016 38.5095 7.30717L37.2204 6.95561C36.3469 6.71768 35.6544 6.3679 35.143 5.90625C34.6352 5.4446 34.3813 4.83381 34.3813 4.07386C34.3813 3.44531 34.5518 2.89666 34.8927 2.42791C35.2336 1.95916 35.6952 1.59517 36.2776 1.33594C36.86 1.07315 37.517 0.941761 38.2485 0.941761C38.9871 0.941761 39.6388 1.07138 40.2034 1.33061C40.7716 1.58984 41.219 1.94673 41.5457 2.40128C41.8724 2.85227 42.0429 3.37074 42.0571 3.95668H40.4697ZM47.9937 12V10.8068L51.6851 6.98224C52.0793 6.56676 52.4042 6.20277 52.6599 5.89027C52.9191 5.57422 53.1127 5.27415 53.2405 4.99006C53.3683 4.70597 53.4323 4.40412 53.4323 4.08452C53.4323 3.7223 53.347 3.4098 53.1766 3.14702C53.0061 2.88068 52.7735 2.67649 52.4788 2.53445C52.184 2.38885 51.852 2.31605 51.4827 2.31605C51.0921 2.31605 50.7512 2.39595 50.46 2.55575C50.1688 2.71555 49.945 2.94105 49.7888 3.23224C49.6325 3.52344 49.5544 3.86435 49.5544 4.25497H47.983C47.983 3.59091 48.1357 3.0103 48.4411 2.51314C48.7465 2.01598 49.1656 1.63068 49.6982 1.35724C50.2309 1.08026 50.8364 0.941761 51.5146 0.941761C52.2 0.941761 52.8037 1.07848 53.3257 1.35192C53.8513 1.6218 54.2615 1.99112 54.5562 2.45987C54.8509 2.92507 54.9983 3.45064 54.9983 4.03658C54.9983 4.44141 54.922 4.83736 54.7693 5.22443C54.6201 5.61151 54.3591 6.04297 53.9862 6.51882C53.6134 6.99112 53.0949 7.56463 52.4308 8.23935L50.2629 10.5085V10.5884H55.1741V12H47.9937ZM61.3118 12V1.09091H62.9577V10.5831H67.9009V12H61.3118ZM71.2567 12H69.5096L73.4354 1.09091H75.337L79.2628 12H77.5156L74.4315 3.07244H74.3462L71.2567 12ZM71.5497 7.72798H77.2173V9.11293H71.5497V7.72798ZM87.8534 1.09091H89.5047V8.26598C89.5047 9.02947 89.3254 9.70597 88.9667 10.2955C88.608 10.8814 88.1038 11.343 87.4539 11.6804C86.8041 12.0142 86.0423 12.1811 85.1688 12.1811C84.2987 12.1811 83.5388 12.0142 82.8889 11.6804C82.2391 11.343 81.7348 10.8814 81.3762 10.2955C81.0175 9.70597 80.8382 9.02947 80.8382 8.26598V1.09091H82.4841V8.13281C82.4841 8.62642 82.5924 9.06499 82.809 9.44851C83.0292 9.83203 83.3399 10.1339 83.7412 10.354C84.1425 10.5707 84.6183 10.679 85.1688 10.679C85.7227 10.679 86.2004 10.5707 86.6017 10.354C87.0065 10.1339 87.3154 9.83203 87.5285 9.44851C87.7451 9.06499 87.8534 8.62642 87.8534 8.13281V1.09091ZM100.703 1.09091V12H99.19L93.6449 3.99929H93.5437V12H91.8977V1.09091H93.4212L98.9716 9.10227H99.0728V1.09091H100.703ZM112.165 4.63849H110.503C110.439 4.28338 110.32 3.97088 110.146 3.70099C109.972 3.43111 109.759 3.20206 109.506 3.01385C109.254 2.82564 108.972 2.68359 108.66 2.58771C108.351 2.49183 108.022 2.44389 107.674 2.44389C107.046 2.44389 106.483 2.60192 105.986 2.91797C105.492 3.23402 105.101 3.69744 104.814 4.30824C104.53 4.91903 104.388 5.66477 104.388 6.54545C104.388 7.43324 104.53 8.18253 104.814 8.79332C105.101 9.40412 105.494 9.86577 105.991 10.1783C106.488 10.4908 107.047 10.647 107.669 10.647C108.013 10.647 108.34 10.6009 108.649 10.5085C108.961 10.4126 109.244 10.2724 109.496 10.0877C109.748 9.90305 109.961 9.67756 110.135 9.41122C110.313 9.14134 110.435 8.83239 110.503 8.48438L112.165 8.4897C112.076 9.02592 111.903 9.51953 111.648 9.97053C111.396 10.418 111.071 10.805 110.673 11.1317C110.279 11.4549 109.828 11.7053 109.32 11.8828C108.812 12.0604 108.258 12.1491 107.658 12.1491C106.714 12.1491 105.872 11.9254 105.133 11.478C104.395 11.027 103.812 10.3825 103.386 9.54439C102.964 8.70632 102.752 7.70668 102.752 6.54545C102.752 5.38068 102.965 4.38104 103.391 3.54652C103.818 2.70845 104.4 2.0657 105.139 1.61825C105.877 1.16726 106.717 0.941761 107.658 0.941761C108.237 0.941761 108.777 1.02521 109.277 1.19212C109.782 1.35547 110.234 1.59695 110.636 1.91655C111.037 2.2326 111.369 2.61967 111.632 3.07777C111.895 3.53232 112.072 4.05256 112.165 4.63849ZM114.134 12V1.09091H115.78V5.83168H121.219V1.09091H122.87V12H121.219V7.24325H115.78V12H114.134Z" fill="#44979D"/>
</svg>
