<svg width="210" height="83" viewBox="0 0 210 83" fill="none" xmlns="http://www.w3.org/2000/svg">
<path d="M178.54 24.45C177.87 24.6 177.42 24.47 176.96 24.22C175.66 23.51 174.41 22.75 173.47 21.56C172.53 20.37 172.31 19.06 172.57 17.63C173.01 15.19 174.31 13.3 176.21 11.73C178.34 9.96999 180.78 8.88999 183.44 8.29999C185.96 7.72999 188.45 8.02001 190.94 8.72001C193.38 9.41001 195.4 10.79 197.17 12.51C199.26 14.55 200.62 17.06 201.39 19.9C201.81 21.43 202.09 23 202.09 24.55C202.09 28.57 201.15 32.3 198.49 35.49C197.04 37.23 195.33 38.68 193.69 40.21C192.49 41.33 191.25 42.41 190.22 43.71C190.1 43.86 189.95 44.13 189.75 44.06C189.48 43.95 189.64 43.65 189.67 43.45C189.96 41.88 190.84 40.61 191.81 39.41C192.74 38.26 193.78 37.21 194.71 36.07C196.61 33.73 197.81 31.09 198.34 28.1C199.12 23.76 198.31 19.81 195.63 16.29C194.2 14.41 192.28 13.21 190.09 12.4C187.95 11.61 185.77 11.46 183.53 11.89C180.26 12.51 177.55 13.98 175.83 16.96C174.81 18.73 174.97 20.45 176.03 22.14C176.62 23.08 177.5 23.77 178.54 24.45Z" fill="#90B8BF"/>
<path d="M12.5301 42.11C12.5301 41.9 12.5301 41.7 12.5301 41.49C12.6701 41.28 12.68 41.07 12.52 40.86C12.47 39.46 13.06 38.29 13.83 37.19C14.79 35.83 16.06 34.83 17.68 34.41C19.75 33.88 21.62 34.38 23.24 35.78C23.38 35.9 23.47 36.19 23.73 36.05C23.96 35.93 23.88 35.68 23.88 35.48C23.88 33.73 23.88 31.98 23.88 30.23C23.88 30.04 23.87 29.85 23.89 29.67C23.97 28.91 24.55 28.35 25.23 28.35C25.77 28.35 26.43 29.06 26.49 29.7C26.5 29.8 26.49 29.91 26.49 30.01C26.49 35.71 26.49 41.42 26.49 47.12C26.49 47.74 26.34 48.3 25.74 48.58C24.95 48.94 24.11 48.49 23.87 47.61C23.7 46.97 23.66 46.97 23.13 47.41C21.96 48.4 20.61 48.96 19.07 48.86C16.56 48.7 14.68 47.47 13.42 45.31C13.02 44.63 12.68 43.91 12.61 43.1C12.63 42.78 12.7101 42.43 12.5301 42.11ZM20.0301 46.46C21.3701 46.31 22.49 45.68 23.5 44.83C23.75 44.62 23.92 44.39 23.92 44.04C23.9 42.65 23.89 41.25 23.88 39.86C23.87 38.88 23.49 38.15 22.6 37.66C21.77 37.21 20.96 36.81 19.97 36.82C19.11 36.83 18.2601 36.78 17.4601 37.2C15.2801 38.34 14.8401 40.58 15.4001 43.13C15.9501 45.64 17.3 46.45 19.87 46.46C19.92 46.47 19.9801 46.47 20.0301 46.46Z" fill="#44979D"/>
<path d="M78.38 48.61C76.71 48.61 75.05 48.6 73.38 48.61C71.94 48.62 71.35 47.62 71.7 46.29C72.12 44.66 73.23 43.55 74.45 42.52C75.9 41.3 77.53 40.32 79.1 39.26C80.29 38.46 81.41 37.56 82.21 36.35C82.73 35.57 82.71 34.7 82.43 33.82C82.03 32.59 81.15 31.96 79.94 31.75C78 31.41 76.11 31.66 74.26 32.3C73.95 32.41 73.64 32.51 73.32 32.59C72.89 32.7 72.55 32.51 72.29 32.18C72.03 31.85 71.92 31.51 72.15 31.1C72.61 30.25 73.51 30.14 74.27 29.8C75.07 29.44 75.93 29.23 76.79 29.13C79.23 28.85 81.62 29.02 83.5 30.84C85.47 32.75 85.52 35.38 84.24 37.59C83.25 39.29 81.76 40.45 80.15 41.52C78.24 42.78 76.22 43.92 74.67 45.67C74.56 45.8 74.32 45.9 74.44 46.13C74.55 46.33 74.78 46.24 74.95 46.24C77.64 46.24 80.32 46.24 83.01 46.24C83.34 46.24 83.66 46.24 83.99 46.34C84.71 46.55 84.98 46.87 84.91 47.62C84.85 48.26 84.44 48.62 83.72 48.62C81.92 48.62 80.15 48.62 78.38 48.61C78.38 48.62 78.38 48.62 78.38 48.61Z" fill="#44979D"/>
<path d="M164.59 39.87C164.58 42.37 164.64 44.87 164.53 47.36C164.49 48.27 163.95 48.74 162.93 48.73C162.46 48.72 161.97 48.15 161.96 47.46C161.93 45.03 161.94 42.59 161.94 40.16C161.94 36.85 161.95 33.54 161.96 30.23C161.96 30.06 161.96 29.9 161.98 29.73C162.04 28.94 162.57 28.36 163.25 28.37C163.88 28.37 164.43 28.94 164.5 29.7C164.6 30.9 164.66 32.11 164.56 33.32C164.48 34.29 164.63 35.27 164.38 36.23C164.35 36.34 164.33 36.5 164.45 36.57C164.6 36.66 164.73 36.54 164.84 36.45C165.22 36.13 165.63 35.84 165.98 35.49C166.72 34.75 167.68 34.45 168.65 34.28C172.41 33.61 174.41 36.83 174.49 39.2C174.58 41.89 174.64 44.57 174.6 47.26C174.59 47.78 174.41 48.2 174 48.5C173.6 48.79 173.13 48.88 172.66 48.62C172.16 48.34 171.97 47.88 171.97 47.32C171.97 44.86 171.98 42.41 171.96 39.95C171.96 39.35 171.91 38.75 171.63 38.2C170.99 36.99 169.76 36.49 168.13 36.81C166.73 37.08 165.72 37.98 164.8 38.99C164.61 39.2 164.57 39.47 164.56 39.75C164.55 39.76 164.52 39.78 164.52 39.79C164.56 39.81 164.57 39.84 164.59 39.87Z" fill="#44979D"/>
<path d="M50.37 40.3C51.01 40.17 51.17 39.84 50.98 39.06C50.66 37.73 49.81 37.04 48.45 36.85C46.8 36.62 45.23 36.99 43.68 37.42C43.01 37.6 42.75 37.17 42.51 36.77C42.26 36.36 42.21 35.87 42.67 35.51C43.46 34.89 44.41 34.72 45.35 34.49C46.22 34.28 47.11 34.2 47.99 34.13C50.69 33.9 53.46 36.45 53.64 39.11C53.81 41.5 53.71 43.89 53.74 46.27C53.75 46.76 53.72 47.27 53.61 47.74C53.52 48.13 53.3 48.48 52.83 48.61C52.25 48.77 51.78 48.72 51.41 48.21C51.25 47.99 51.15 47.73 51.13 47.46C51.09 46.94 50.9101 46.88 50.5301 47.23C49.0301 48.58 47.2201 49.07 45.2801 48.82C43.7101 48.62 42.31 47.86 41.73 46.27C40.99 44.25 41.6601 42.32 43.4601 41.26C44.5601 40.61 45.77 40.34 47.01 40.23C47.96 40.15 48.92 40.14 49.87 40.24C50.03 40.44 50.2 40.42 50.37 40.3ZM50.86 42.39C50.75 42.39 50.6401 42.39 50.5301 42.39C50.4801 42.39 50.42 42.39 50.37 42.39C49.1 42.43 47.84 42.38 46.57 42.49C45.93 42.55 45.36 42.74 44.83 43.1C44.2 43.52 44.01 44.15 44.16 44.85C44.31 45.55 44.47 46.24 45.36 46.46C47.09 46.88 48.6301 46.6 50.0301 45.49C50.6901 44.97 51.18 44.42 51.01 43.5C50.95 43.18 51 42.84 50.99 42.51C50.98 42.42 50.94 42.38 50.86 42.39Z" fill="#44979D"/>
<path d="M105.54 46.23C105.28 45.05 105.25 43.91 105.84 42.78C106.12 42.24 106.51 41.85 106.97 41.51C108.23 40.59 109.69 40.28 111.21 40.24C112.25 40.21 113.29 40.22 114.33 40.23C114.85 40.23 115.07 40.14 114.92 39.5C114.44 37.48 113.71 36.86 111.52 36.77C110.22 36.72 108.99 37.08 107.75 37.38C107.2 37.51 106.66 37.32 106.41 36.85C106.14 36.33 106.24 35.87 106.74 35.48C107.26 35.08 107.86 34.89 108.49 34.71C110.11 34.24 111.76 33.99 113.39 34.4C115.32 34.88 116.69 36.13 117.37 38.04C117.76 39.12 117.63 40.25 117.65 41.37C117.68 43.24 117.64 45.12 117.63 46.99C117.63 47.24 117.6 47.48 117.53 47.72C117.31 48.54 116.97 48.81 116.12 48.75C115.5 48.7 115.18 48.33 115.12 47.56C115.1 47.38 115.17 47.14 114.98 47.05C114.75 46.95 114.61 47.18 114.46 47.31C113.37 48.28 112.02 48.83 110.64 48.93C108.86 49.06 107.2 48.49 106.02 46.99C105.85 46.72 105.79 46.42 105.54 46.23ZM114.48 42.4C113.67 42.4 112.86 42.39 112.05 42.41C111.06 42.44 110.06 42.43 109.13 42.86C108.3 43.25 107.92 43.89 108 44.74C108.09 45.66 108.62 46.32 109.49 46.51C110.46 46.73 111.44 46.69 112.38 46.37C113.37 46.04 114.19 45.42 114.83 44.62C115.25 44.09 114.94 43.37 115 42.74C115.01 42.66 114.99 42.57 114.99 42.49C114.97 42.41 114.93 42.38 114.85 42.39C114.78 42.39 114.72 42.38 114.65 42.38C114.59 42.39 114.53 42.39 114.48 42.4Z" fill="#44979D"/>
<path d="M34.4 46.46C35.46 46.48 36.52 46.45 37.57 46.24C38.07 46.14 38.48 45.84 38.96 45.7C39.65 45.5 40.17 45.66 40.42 46.17C40.69 46.74 40.52 47.24 39.86 47.62C38.32 48.51 36.66 49.07 34.88 48.97C33.34 48.88 31.82 48.51 30.56 47.55C28.86 46.25 27.98 44.5 27.89 42.35C27.85 41.35 27.87 40.37 28.1 39.38C28.67 36.97 30.06 35.25 32.44 34.53C36.44 33.31 39.94 35.66 40.85 39.48C41 40.11 41.08 40.78 41.02 41.45C40.96 42.07 40.55 42.47 39.91 42.49C39.32 42.51 38.73 42.49 38.14 42.5C35.77 42.5 33.39 42.51 31.02 42.49C30.5 42.49 30.43 42.66 30.58 43.11C31.02 44.44 31.74 45.53 33.05 46.15C33.44 46.34 33.85 46.36 34.26 46.44C34.3 46.45 34.35 46.46 34.4 46.46ZM30.51 40.25C30.64 40.46 30.84 40.37 31.02 40.35C33.2 40.34 35.38 40.33 37.56 40.33C37.81 40.33 38.05 40.32 38.29 40.24C38.39 40.2 38.52 40.17 38.44 40.04C38.22 39.68 38.28 39.24 38.1 38.86C37.05 36.68 34.51 35.87 32.41 37.09C31.22 37.78 30.63 38.89 30.51 40.25Z" fill="#44979D"/>
<path d="M119.59 42.1C119.59 41.69 119.6 41.29 119.6 40.88C119.66 39.41 119.66 37.94 119.59 36.48C119.59 36.41 119.59 36.34 119.59 36.27C119.59 36.22 119.59 36.16 119.59 36.11C119.64 34.89 120 34.48 120.99 34.5C121.77 34.52 122.21 34.98 122.24 35.94C122.28 37.39 122.27 38.84 122.28 40.3C122.28 41.11 122.28 41.92 122.28 42.73C122.27 42.78 122.26 42.83 122.25 42.89C122.28 43.8 122.28 44.71 122.81 45.51C123.12 45.98 123.53 46.31 124.1 46.42C125.89 46.76 127.33 46.27 128.63 44.91C129.48 44.02 129.66 43.12 129.63 42.01C129.58 39.97 129.62 37.93 129.63 35.89C129.63 35.17 130.05 34.6 130.62 34.52C131.47 34.39 132.01 34.72 132.24 35.54C132.31 35.78 132.34 36.03 132.34 36.28C132.34 39.92 132.34 43.56 132.33 47.2C132.33 47.34 132.3 47.49 132.28 47.63C132.27 47.67 132.26 47.72 132.25 47.76C131.95 48.53 131.42 48.86 130.69 48.76C130.14 48.68 129.67 48.03 129.62 47.28C129.61 47.11 129.73 46.87 129.52 46.78C129.28 46.67 129.15 46.9 129 47.04C127.93 48.02 126.72 48.77 125.28 48.98C123.92 49.18 122.65 48.8 121.58 47.9C120.79 47.23 120.22 46.39 119.82 45.43C119.63 44.97 119.62 44.49 119.53 44.03C119.73 43.69 119.61 43.34 119.57 42.99C119.57 42.8 119.57 42.61 119.58 42.42C119.59 42.29 119.59 42.19 119.59 42.1Z" fill="#44979D"/>
<path d="M144.59 42.59C144.59 42.52 144.59 42.45 144.59 42.38C144.66 41.95 144.65 41.52 144.59 41.09C144.59 40.77 144.59 40.45 144.59 40.13C144.57 40.08 144.55 40.03 144.52 39.97C144.51 39.45 144.45 38.94 144.27 38.45C143.72 36.91 142.52 36.59 140.81 36.78C139.45 36.94 138.49 37.82 137.58 38.74C137.21 39.11 137.12 39.59 137.12 40.11C137.13 42.5 137.14 44.9 137.11 47.29C137.1 48.36 136.57 48.81 135.52 48.72C135 48.67 134.53 48.21 134.53 47.71C134.52 43.63 134.51 39.55 134.51 35.47C134.51 34.87 134.88 34.51 135.46 34.46C136.29 34.39 136.89 34.76 137 35.45C137.06 35.83 137.22 36.2 137.12 36.6C137.47 36.62 137.59 36.38 137.75 36.2C139.18 34.65 140.94 33.99 143.03 34.22C144.13 34.34 144.94 34.98 145.67 35.75C146.81 36.96 147.23 38.44 147.24 40.06C147.25 42.35 147.24 44.64 147.24 46.93C147.24 47.29 147.21 47.63 147.05 47.96C146.78 48.51 146.26 48.82 145.59 48.7C145 48.6 144.64 48.23 144.61 47.6C144.65 47.09 144.67 46.58 144.6 46.07C144.6 45.67 144.6 45.26 144.6 44.86C144.6 44.76 144.6 44.66 144.6 44.57C144.6 44.5 144.6 44.43 144.6 44.36C144.6 44.26 144.6 44.16 144.6 44.07C144.6 44 144.6 43.93 144.6 43.86C144.66 43.6 144.66 43.33 144.6 43.07C144.6 43 144.6 42.93 144.6 42.86C144.59 42.79 144.59 42.69 144.59 42.59Z" fill="#44979D"/>
<path d="M60.2 49.02C58.54 48.84 56.99 48.45 55.53 47.71C55 47.44 54.79 47.01 54.89 46.42C54.96 45.99 55.21 45.76 55.64 45.72C56.11 45.67 56.56 45.77 56.97 45.97C58.38 46.65 59.89 46.53 61.37 46.44C62.19 46.39 62.8 45.92 63.04 45.07C63.2 44.5 63.04 44.02 62.52 43.75C61.49 43.21 60.36 42.9 59.24 42.76C57.35 42.52 55.1 40.79 54.91 38.96C54.77 37.58 55.29 36.27 56.46 35.4C58.01 34.25 59.73 33.87 61.66 34.3C62.4 34.46 63.18 34.51 63.91 34.76C64.82 35.08 65.01 35.32 64.99 36.1C64.98 36.85 64.43 37.31 63.69 37.14C62.37 36.84 61.05 36.63 59.69 36.73C58.88 36.79 58.15 37.05 57.64 37.73C57.13 38.41 57.32 39.33 58.11 39.66C58.83 39.96 59.57 40.2 60.34 40.39C61.55 40.68 62.73 41.1 63.83 41.68C66.59 43.15 65.76 46.64 63.92 47.9C62.77 48.7 61.47 48.81 60.2 49.02Z" fill="#44979D"/>
<path d="M95.64 46.1C96.17 46.1 96.71 46.1 97.24 46.11C97.29 46.1 97.34 46.09 97.39 46.09C97.46 46.09 97.53 46.09 97.61 46.09C99.87 46.1 102.12 46.1 104.38 46.11C104.72 46.22 105.1 46.25 105.37 46.52C105.62 46.76 105.61 47.1 105.66 47.41C105.6 48.31 105.27 48.64 104.37 48.64C101.18 48.65 98 48.64 94.81 48.63C93.83 48.63 93.01 47.82 93 46.78C92.97 43.95 92.97 41.12 92.97 38.28C92.97 35.89 92.97 33.49 92.98 31.1C92.98 30.77 92.96 30.44 93.11 30.12C93.4 29.48 93.82 29.19 94.41 29.26C94.93 29.32 95.46 29.85 95.54 30.43C95.59 30.78 95.6 31.14 95.6 31.49C95.6 35.51 95.6 39.53 95.59 43.55C95.59 44.19 95.56 44.84 95.54 45.48C95.5 45.68 95.4 45.92 95.64 46.1Z" fill="#44979D"/>
<path d="M155.95 34.25C157.36 34.12 158.69 34.65 159.96 35.36C160.72 35.79 160.91 36.22 160.75 37.06C160.67 37.47 159.83 37.85 159.37 37.68C159.29 37.65 159.22 37.6 159.15 37.56C157.59 36.7 155.91 36.58 154.24 37.01C152.55 37.44 151.48 38.63 151.21 40.35C150.89 42.37 151.2 44.21 152.98 45.58C154.2 46.52 155.56 46.47 156.96 46.43C157.85 46.4 158.57 45.91 159.36 45.61C159.87 45.42 160.51 45.6 160.71 46.01C160.92 46.44 160.72 47.25 160.33 47.49C159.12 48.24 157.84 48.76 156.39 48.87C153.78 49.05 151.67 48.07 149.99 46.16C149.08 45.12 148.69 43.83 148.49 42.44C148.05 39.39 149.32 37.13 151.68 35.4C152.89 34.52 154.34 34.19 155.95 34.25Z" fill="#44979D"/>
<path d="M9.10999 48.73C8.70999 48.69 8.29002 48.51 8.15002 47.93C8.06002 47.56 8.03003 47.19 8.03003 46.82C8.03003 41.53 8.03003 36.24 8.03003 30.96C8.03003 30.69 8.07 30.42 8.13 30.16C8.29 29.54 8.81 29.2 9.44 29.25C10.03 29.3 10.45 29.78 10.52 30.39C10.84 33.11 10.58 35.83 10.64 38.55C10.69 41.28 10.65 44 10.64 46.73C10.64 47.12 10.55 47.5 10.51 47.89C10.44 48.46 9.99999 48.72 9.10999 48.73Z" fill="#44979D"/>
<path d="M177.26 43.47C178.32 43.54 179.35 43.87 180.4 44.1C182.26 44.5 184.12 44.92 185.98 45.37C186.48 45.49 186.96 45.71 187.44 45.89C187.9 46.05 187.97 46.43 187.85 46.8C187.73 47.16 187.63 47.61 187.07 47.61C185.97 47.61 184.92 47.3 183.85 47.1C181.55 46.68 179.3 46.06 177.04 45.49C176.17 45.27 175.82 44.49 176.27 43.73C176.5 43.33 176.9 43.55 177.26 43.47Z" fill="#90B8BF"/>
<path d="M177.8 46.7C179.15 46.85 180.43 47.2 181.71 47.49C182.81 47.74 183.94 47.85 185.01 48.23C185.67 48.47 185.79 48.8 185.44 49.41C184.74 50.62 183.77 51.08 182.26 50.85C180.79 50.63 179.36 50.28 178 49.61C177.39 49.31 176.82 47.49 177 46.94C177.15 46.53 177.57 46.86 177.8 46.7Z" fill="#90B8BF"/>
<path d="M84.87 63.74C84.87 63.24 84.87 62.74 84.87 62.24C84.87 61.82 85.01 61.59 85.48 61.81C85.67 61.9 85.87 61.95 86.08 61.82C86.71 61.44 87.33 61.5 87.96 61.83C88.28 62 88.61 62.08 88.95 61.84C89.89 61.19 90.85 61.46 91.25 62.5C91.61 63.44 91.51 64.43 91.47 65.4C91.46 65.71 91.18 65.88 90.9 65.87C90.6 65.86 90.51 65.6 90.51 65.33C90.51 64.58 90.49 63.83 90.51 63.08C90.52 62.55 90.33 62.25 89.77 62.22C89.14 62.19 88.66 62.48 88.62 63.01C88.58 63.74 88.6 64.47 88.6 65.19C88.6 65.52 88.6 65.86 88.14 65.84C87.71 65.82 87.75 65.48 87.75 65.19C87.74 64.5 87.77 63.81 87.71 63.13C87.69 62.85 87.76 62.46 87.32 62.32C86.86 62.18 86.45 62.13 86.04 62.47C85.74 62.72 85.6 62.99 85.61 63.38C85.63 64.05 85.62 64.71 85.62 65.38C85.62 65.59 85.61 65.83 85.32 65.83C85.05 65.84 84.89 65.65 84.88 65.4C84.86 64.84 84.87 64.28 84.87 63.71C84.88 63.74 84.87 63.74 84.87 63.74Z" fill="#F2A16C"/>
<path d="M122.14 65.96C120.85 65.97 119.8 65.21 119.37 63.98C118.94 62.73 119.31 61.12 120.28 60.41C121.28 59.68 122.65 59.31 123.89 60.25C124.11 60.41 124.3 60.59 124.2 60.86C124.07 61.22 123.78 61.01 123.56 60.97C122.66 60.82 121.77 60.65 120.91 61.13C120.05 61.62 119.62 63.18 120.18 64.01C120.68 64.75 121.72 65.5 122.88 64.97C123.1 64.87 123.35 64.82 123.6 64.77C123.81 64.73 124.09 64.6 124.21 64.88C124.33 65.16 124.19 65.41 123.95 65.58C123.62 65.82 123.23 65.9 122.83 65.94C122.6 65.98 122.37 65.96 122.14 65.96Z" fill="#F2A16C"/>
<path d="M44.34 64.27C44.34 64.73 44.47 65.24 44.31 65.63C44.09 66.16 43.54 65.58 43.14 65.78C42.91 65.9 42.61 65.85 42.35 65.91C41.43 66.11 40.73 65.72 40.52 64.9C40.34 64.19 40.89 63.46 41.77 63.26C42.11 63.18 42.46 63.16 42.8 63.11C42.98 63.09 43.2 63.13 43.25 62.88C43.3 62.64 43.14 62.5 42.94 62.39C42.45 62.12 41.94 62.19 41.43 62.3C41.21 62.34 40.93 62.5 40.83 62.22C40.71 61.9 41.01 61.72 41.26 61.65C41.86 61.47 42.48 61.4 43.09 61.62C43.95 61.92 44.32 62.42 44.34 63.34C44.35 63.65 44.34 63.96 44.34 64.27ZM42.13 65.24C42.92 65.24 43.46 64.77 43.19 64.27C42.8 63.56 42.19 64.2 41.68 64.14C41.36 64.11 41.2 64.4 41.27 64.75C41.36 65.26 41.75 65.23 42.13 65.24Z" fill="#F2A16C"/>
<path d="M165.25 64.21C165.25 64.63 165.25 65.04 165.25 65.46C165.25 65.73 165.15 65.96 164.85 65.84C164.3 65.62 163.79 65.82 163.27 65.93C162.46 66.11 161.66 65.68 161.4 64.91C161.29 64.57 161.67 63.84 162.13 63.56C162.62 63.25 163.16 63.12 163.73 63.13C163.92 63.13 164.19 63.22 164.24 62.92C164.3 62.6 164.07 62.39 163.81 62.31C163.35 62.18 162.87 62.21 162.39 62.3C162.2 62.34 161.95 62.49 161.87 62.19C161.81 61.95 161.92 61.75 162.2 61.62C162.93 61.27 163.6 61.37 164.3 61.72C165.09 62.12 165.3 62.77 165.23 63.58C165.22 63.79 165.24 64 165.25 64.21C165.24 64.21 165.24 64.21 165.25 64.21ZM163.45 65.26C164.08 65.48 164.12 64.82 164.29 64.34C164.39 64.06 164.25 63.88 163.91 63.86C163.37 63.83 162.9 64 162.43 64.24C162.2 64.36 162.26 64.54 162.25 64.72C162.24 64.99 162.42 65.14 162.65 65.21C162.84 65.25 163.06 65.23 163.45 65.26Z" fill="#F2A16C"/>
<path d="M186.5 20.95C186.52 21.31 186.47 21.5 186.31 21.66C185.84 22.13 185.34 22.57 184.75 22.89C184.5 23.03 184.22 23.12 183.98 22.94C183.45 22.54 183.06 22 182.66 21.48C182.56 21.36 182.59 21.2 182.68 21.07C183.17 20.42 183.66 19.76 184.32 19.27C184.6 19.06 184.98 18.99 185.24 19.23C185.71 19.66 186.11 20.18 186.45 20.72C186.52 20.82 186.5 20.97 186.5 20.95Z" fill="#E47A48"/>
<path d="M57 61.97C57.27 61.45 56.95 60.92 57 60.39C57.03 60 57.09 59.73 57.53 59.72C57.99 59.71 58.14 59.96 58.14 60.39C58.13 61.99 58.12 63.6 58.12 65.2C58.12 65.71 57.91 65.93 57.4 65.85C56.76 65.74 56.14 65.8 55.52 65.96C55.43 65.98 55.32 65.94 55.23 65.9C54.13 65.53 53.5 64.24 53.86 63.09C54.06 63.23 54.14 63.55 54.48 63.46C54.5 63.65 54.48 63.84 54.53 64.02C54.67 64.54 54.94 65.01 55.47 65.17C56 65.33 56.5 65.17 56.85 64.71C57.38 64.02 57.1 63.26 56.99 62.52C57.18 62.34 57.29 62.16 57 61.97Z" fill="#F2A16C"/>
<path d="M180.44 19C180.54 19.1 180.65 19.2 180.75 19.3C181.62 20.24 181.63 20.36 180.67 21.28C180.3 21.63 179.95 22 179.48 22.25C179.13 22.43 178.91 22.4 178.67 22.14C178.36 21.81 178.02 21.49 177.72 21.15C177.29 20.65 177.39 20.11 177.91 19.73C178.23 19.5 178.5 19.21 178.79 18.95C179.1 18.67 179.43 18.42 179.87 18.39C179.98 18.68 180.17 18.87 180.44 19Z" fill="#E47A48"/>
<path d="M96.41 65.98C95.08 66.06 94.38 65.28 94.14 64.25C93.88 63.15 94.43 62.02 95.38 61.6C96.5 61.1 98.11 62.01 98.22 63.23C98.25 63.57 98.14 63.78 97.73 63.88C96.97 64.06 96.22 64.06 95.46 63.98C94.97 63.93 94.92 64.16 95.08 64.54C95.31 65.07 95.97 65.36 96.66 65.22C96.88 65.17 97.11 65.12 97.32 65.05C97.6 64.95 97.77 65.07 97.84 65.32C97.91 65.56 97.79 65.73 97.56 65.8C97.18 65.93 96.79 66.04 96.41 65.98ZM94.75 63.22C95.52 63.22 96.17 63.22 96.81 63.22C96.99 63.22 97.15 63.17 97.22 62.99C97.3 62.79 97.14 62.68 97.03 62.57C96.57 62.11 95.99 62.21 95.44 62.27C94.95 62.33 95.01 62.81 94.75 63.22Z" fill="#F2A16C"/>
<path d="M9.76001 62.89C9.76001 62.16 9.75001 61.43 9.76001 60.71C9.78001 59.97 9.92 59.8 10.63 59.79C11.5 59.78 12.36 59.71 13.23 59.84C13.75 59.92 13.63 60.26 13.65 60.5C13.68 60.83 13.35 60.76 13.15 60.76C12.42 60.77 11.69 60.77 10.97 60.74C10.62 60.73 10.49 60.85 10.5 61.21C10.56 62.74 10.23 62.45 11.77 62.49C12.23 62.5 12.68 62.45 13.13 62.6C13.27 62.65 13.44 62.67 13.46 62.84C13.49 63.05 13.3 63.12 13.15 63.17C12.64 63.33 12.12 63.23 11.6 63.24C10.51 63.25 10.51 63.24 10.51 64.31C10.51 64.6 10.52 64.89 10.51 65.18C10.5 65.48 10.56 65.9 10.11 65.89C9.71999 65.88 9.76001 65.49 9.76001 65.21C9.75001 64.82 9.76 64.42 9.75 64.03C9.76 63.64 9.76001 63.27 9.76001 62.89Z" fill="#F2A16C"/>
<path d="M20.4 63.7C20.38 65.24 19.53 65.92 17.92 65.97C16.89 66 16.02 64.96 16.01 63.76C16 62.44 16.87 61.49 18.1 61.48C19.48 61.47 20.4 62.35 20.4 63.7ZM19.38 63.79C19.38 62.73 18.9 62.07 18.11 62.15C17.14 62.25 16.73 62.78 16.76 63.59C16.79 64.57 17.35 65.24 18.17 65.23C18.87 65.23 19.39 64.62 19.38 63.79Z" fill="#F2A16C"/>
<path d="M126.74 63.72C126.74 62.38 127.52 61.43 128.67 61.37C129.83 61.31 131.11 62.55 131.12 63.73C131.12 64.93 130.06 65.98 128.84 65.98C127.58 65.97 126.74 65.07 126.74 63.72ZM127.48 63.62C127.48 64.56 128.04 65.24 128.81 65.24C129.53 65.25 130.12 64.57 130.12 63.73C130.12 62.78 129.7 62.24 128.94 62.23C127.81 62.22 127.48 62.54 127.48 63.62Z" fill="#F2A16C"/>
<path d="M32.76 61.89C33.07 61.86 33.02 61.62 33.02 61.42C33.02 61 33.02 60.59 33.02 60.17C33.02 59.82 33.2401 59.67 33.5301 59.68C33.8001 59.68 34 59.85 34 60.16C34 61.91 34 63.65 33.98 65.4C33.98 65.81 33.67 65.96 33.33 65.83C33.01 65.71 32.74 65.73 32.43 65.82C30.84 66.27 29.67 65.31 29.75 63.62C29.95 63.62 30.16 63.61 30.36 63.61C30.41 63.83 30.43 64.06 30.5 64.28C30.69 64.85 31.25 65.25 31.81 65.25C32.4 65.25 32.84 64.96 32.99 64.43C33.18 63.8 33.03 63.15 32.85 62.52C32.97 62.43 33.19 62.43 33.19 62.24C33.19 61.95 32.86 62.06 32.76 61.89Z" fill="#F2A16C"/>
<path d="M74.24 65.97C72.99 65.98 72.01 64.96 72 63.64C71.99 62.48 73.08 61.37 74.19 61.41C75.46 61.45 76.33 62.44 76.35 63.86C76.37 65.06 75.47 65.96 74.24 65.97ZM74.24 62.24C73.3 62.08 72.94 62.77 72.89 63.66C72.84 64.46 73.58 65.24 74.3 65.25C75.03 65.25 75.61 64.59 75.62 63.74C75.65 62.75 75.18 62.25 74.24 62.24Z" fill="#F2A16C"/>
<path d="M150.21 63.99C150.21 64.49 150.22 64.99 150.21 65.49C150.21 65.7 150.18 65.99 149.88 65.85C149.19 65.53 148.53 65.86 147.86 65.88C147.13 65.89 146.58 65.66 146.4 64.97C146.12 63.93 146.26 62.86 146.32 61.81C146.33 61.66 146.39 61.45 146.62 61.5C146.84 61.55 146.98 61.72 146.99 61.95C147.02 62.45 147.02 62.95 147.02 63.45C147.02 63.8 147.01 64.15 147.11 64.5C147.32 65.24 147.72 65.47 148.41 65.14C148.89 64.91 149.27 64.56 149.25 63.95C149.23 63.37 149.24 62.78 149.27 62.2C149.28 61.92 149.28 61.62 149.72 61.6C150.15 61.58 150.11 61.87 150.16 62.13C150.27 62.74 150.2 63.37 150.21 63.99Z" fill="#F2A16C"/>
<path d="M133.74 63.72C133.74 63.16 133.72 62.6 133.75 62.04C133.77 61.64 133.94 61.36 134.38 61.72C134.6 61.9 134.88 61.94 135.08 61.8C135.73 61.35 136.4 61.47 136.98 61.82C137.62 62.2 137.76 62.91 137.74 63.63C137.73 64.21 137.73 64.79 137.73 65.38C137.73 65.7 137.6 65.89 137.24 65.88C136.89 65.88 136.77 65.7 136.77 65.37C136.77 64.64 136.78 63.92 136.77 63.19C136.76 62.46 136.58 62.23 135.85 62.27C134.57 62.34 134.46 62.6 134.52 63.54C134.56 64.16 134.54 64.79 134.55 65.41C134.55 65.66 134.53 65.87 134.2 65.87C133.88 65.87 133.75 65.72 133.75 65.41C133.74 64.84 133.74 64.28 133.74 63.72Z" fill="#F2A16C"/>
<path d="M141.75 65.99C141.4 66.09 141.03 65.88 140.65 65.82C140.21 65.76 140.2 65.35 140.29 65.03C140.41 64.61 140.71 64.83 140.94 64.94C141.36 65.14 141.79 65.27 142.25 65.15C142.45 65.1 142.75 65.1 142.71 64.77C142.68 64.5 142.52 64.29 142.25 64.26C141.85 64.22 141.5 64.03 141.15 63.87C140.66 63.65 140.23 63.37 140.24 62.74C140.25 62.09 140.73 61.81 141.24 61.6C141.8 61.36 142.38 61.43 142.95 61.6C143.19 61.67 143.43 61.81 143.36 62.06C143.29 62.31 143.01 62.35 142.76 62.3C142.35 62.22 141.95 62.18 141.55 62.34C141.36 62.41 141.11 62.4 141.13 62.69C141.15 62.92 141.33 63.04 141.53 63.11C141.88 63.23 142.24 63.34 142.58 63.48C143.4 63.81 143.64 64.2 143.51 65C143.42 65.58 142.88 65.95 142.12 65.98C142.01 65.99 141.9 65.99 141.75 65.99Z" fill="#F2A16C"/>
<path d="M182.76 64.79C183.11 63.9 183.47 63.11 183.63 62.26C183.72 61.76 184.11 61.36 184.46 61.47C184.95 61.62 184.78 62.21 184.59 62.55C183.75 64.11 183.17 65.78 182.45 67.38C182.36 67.57 182.24 67.89 181.99 67.78C181.71 67.66 181.7 67.35 181.85 67.08C182.31 66.28 182.19 65.49 181.84 64.7C181.54 64.01 181.24 63.33 180.95 62.64C180.86 62.43 180.79 62.21 180.75 61.99C180.72 61.84 180.67 61.63 180.85 61.53C181.05 61.42 181.12 61.65 181.25 61.73C181.93 62.17 181.75 63.01 182.12 63.61C182.32 63.98 182.4 64.4 182.76 64.79Z" fill="#F2A16C"/>
<path d="M80.94 62.27C80.63 62.27 80.31 62.23 80.01 62.28C79.81 62.31 79.51 62.37 79.53 62.67C79.55 62.92 79.74 63.04 79.99 63.09C80.48 63.19 80.94 63.37 81.39 63.59C81.89 63.83 82.27 64.13 82.24 64.76C82.2 65.37 81.81 65.71 81.29 65.87C80.63 66.07 79.94 66.05 79.28 65.82C78.9 65.68 78.75 65.36 78.91 65.03C79.05 64.73 79.38 64.84 79.61 64.98C79.87 65.14 80.16 65.19 80.44 65.22C80.73 65.25 81.1 65.33 81.12 64.83C81.14 64.41 80.98 64.25 80.55 64.23C79.86 64.19 79.05 63.58 78.97 63.12C78.84 62.36 79.23 61.73 80.02 61.54C80.57 61.41 81.14 61.48 81.67 61.69C81.84 61.76 82.04 61.87 81.98 62.1C81.92 62.3 81.71 62.25 81.55 62.26C81.34 62.27 81.13 62.26 80.93 62.26C80.94 62.25 80.94 62.26 80.94 62.27Z" fill="#F2A16C"/>
<path d="M195.29 28.37C195.51 28.62 195.7 28.9 195.94 29.12C196.33 29.46 196.3 29.81 195.97 30.13C195.52 30.56 195.04 30.95 194.57 31.36C194.46 31.46 194.32 31.5 194.17 31.47C193.8 31.39 192.74 30.2 192.73 29.83C192.73 29.75 192.73 29.65 192.77 29.59C193.28 28.93 193.88 28.37 194.69 28.08C194.78 28.05 194.89 28.1 195 28.11C195.04 28.25 195.13 28.35 195.29 28.37Z" fill="#E47A48"/>
<path d="M176.87 61.48C177.3 61.45 177.73 61.57 178.13 61.82C178.32 61.94 178.45 62.12 178.36 62.34C178.25 62.59 178.06 62.43 177.89 62.39C177.63 62.33 177.39 62.23 177.11 62.23C176.05 62.24 175.83 62.39 175.66 63.34C175.5 64.2 175.89 64.94 176.67 65.19C177.04 65.31 177.39 65.21 177.73 64.99C177.93 64.86 178.28 64.62 178.44 64.91C178.61 65.21 178.47 65.67 178.11 65.73C177.44 65.85 176.75 66.19 176.08 65.84C175.17 65.37 174.59 64.64 174.65 63.55C174.69 62.36 175.64 61.47 176.87 61.48Z" fill="#F2A16C"/>
<path d="M186.54 22.69C186.67 22.78 186.8 22.84 186.9 22.94C187.2 23.23 187.48 23.53 187.77 23.83C188.1 24.16 188.05 24.48 187.75 24.81C187.33 25.27 186.78 25.59 186.46 26.15C186.32 26.38 186.1 26.22 185.97 26.12C185.48 25.76 185.1 25.3 184.73 24.83C184.58 24.64 184.52 24.41 184.73 24.22C185.21 23.76 185.7 23.32 186.2 22.87C186.29 22.79 186.41 22.75 186.54 22.69Z" fill="#E47A48"/>
<path d="M192.63 15.91C192.61 15.95 192.6 16.07 192.53 16.13C192.04 16.58 191.58 17.06 191.04 17.45C190.64 17.73 190.33 17.34 190.1 17.07C189.79 16.71 189 16.52 189.3 15.9C189.65 15.17 190.34 14.68 190.99 14.19C191.05 14.14 191.19 14.16 191.29 14.18C191.58 14.25 192.61 15.54 192.63 15.91Z" fill="#E47A48"/>
<path d="M109.88 63.6C109.88 64.8 110.85 65.47 112.03 65.12C112.24 65.06 112.6 64.54 112.78 65.19C112.93 65.73 112.57 65.8 112.18 65.89C111.01 66.16 110.12 65.88 109.54 65.03C108.95 64.16 108.98 63.16 109.62 62.25C110.19 61.43 111.85 61.21 112.6 61.85C112.72 61.96 112.8 62.08 112.75 62.23C112.68 62.45 112.47 62.42 112.33 62.38C111.97 62.26 111.6 62.25 111.22 62.26C110.22 62.26 109.88 62.6 109.88 63.6Z" fill="#F2A16C"/>
<path d="M100.88 63.68C100.88 63.35 100.88 63.02 100.88 62.68C100.88 62.54 100.92 62.36 100.76 62.29C100.11 62.01 100.41 61.74 100.74 61.45C100.86 61.34 100.98 61.22 101.08 61.09C101.34 60.75 101.54 60.63 101.75 61.14C101.9 61.5 102.3 61.46 102.61 61.53C102.81 61.58 103.06 61.64 103.06 61.89C103.06 62.17 102.77 62.13 102.59 62.19C102.46 62.23 102.3 62.21 102.16 62.21C101.88 62.2 101.75 62.3 101.76 62.61C101.78 63.21 101.76 63.81 101.78 64.42C101.79 64.92 101.99 65.26 102.57 65.24C102.83 65.23 103.15 65.27 103.17 65.55C103.19 65.77 102.87 65.85 102.65 65.91C101.62 66.19 100.94 65.7 100.88 64.62C100.87 64.31 100.88 64 100.88 63.68Z" fill="#F2A16C"/>
<path d="M157.11 63.72C157.11 63.41 157.1 63.1 157.11 62.79C157.11 62.59 157.06 62.4 156.88 62.31C156.22 61.98 156.58 61.68 156.91 61.39C157.03 61.28 157.19 61.2 157.3 61.08C157.51 60.85 157.68 60.75 157.83 61.12C157.96 61.45 158.24 61.49 158.55 61.47C158.84 61.45 159.06 61.54 159.09 61.84C159.12 62.2 158.84 62.25 158.59 62.22C158.07 62.16 157.95 62.41 157.97 62.87C157.99 63.43 157.97 63.99 157.95 64.55C157.93 65.04 158.1 65.29 158.63 65.23C158.87 65.2 159.2 65.19 159.19 65.54C159.19 65.82 158.93 65.91 158.66 65.97C157.84 66.13 157.28 65.76 157.15 64.9C157.09 64.51 157.11 64.11 157.09 63.72C157.1 63.72 157.11 63.72 157.11 63.72Z" fill="#F2A16C"/>
<path d="M26.99 64.23C26.9 65.91 24.85 66.35 23.85 65.73C22.39 64.84 22.22 62.96 23.53 62.02C23.47 62.4 23.66 62.52 24 62.47C23.94 62.64 23.87 62.81 23.82 62.99C23.55 63.92 23.9 64.9 24.6 65.19C25.2 65.44 25.84 65.07 26.31 64.22C26.53 64.29 26.76 64.44 26.99 64.23Z" fill="#F2A16C"/>
<path d="M190.72 26.22C190.74 26.4 190.65 26.54 190.52 26.65C190.27 26.87 190.05 27.12 189.77 27.29C189.47 27.48 189.22 28.02 188.88 27.81C188.4 27.52 188.02 27.04 187.65 26.6C187.5 26.43 187.67 26.19 187.8 26.04C188.17 25.62 188.57 25.23 188.95 24.83C189.04 24.73 189.17 24.72 189.3 24.73C189.6 24.78 190.7 25.92 190.72 26.22Z" fill="#E47A48"/>
<path d="M153 62.66C153 61.85 153.03 61.04 152.99 60.23C152.97 59.88 153.04 59.72 153.39 59.72C153.75 59.72 153.99 59.89 153.99 60.28C153.99 61.89 153.99 63.5 153.99 65.11C153.99 65.33 154.03 65.58 153.8 65.74C153.62 65.87 153.42 65.91 153.21 65.83C152.99 65.74 153 65.54 153 65.35C153 64.45 153 63.56 153 62.66Z" fill="#F2A16C"/>
<path d="M184.89 12.58C185.33 12.92 185.77 13.26 186.01 13.78C186.19 14.17 185.99 14.48 185.7 14.75C185.68 14.76 185.67 14.78 185.65 14.79C184.41 16.01 184.41 16.01 183.31 14.67C183.03 14.33 182.96 14.02 183.34 13.7C183.69 13.41 184.03 13.11 184.39 12.83C184.53 12.72 184.69 12.67 184.89 12.58Z" fill="#E47A48"/>
<path d="M181.16 16.93C180.66 16.94 179.65 16.05 179.62 15.58C179.6 15.23 180.93 14 181.35 13.99C181.69 13.98 182.62 15.03 182.61 15.42C182.6 15.89 181.6 16.92 181.16 16.93Z" fill="#E47A48"/>
<path d="M188.35 20.89C187.82 20.72 187.53 20.19 187.23 19.68C186.99 19.26 187.33 19.02 187.58 18.79C188.76 17.75 188.73 17.79 189.86 18.92C190.29 19.35 190.18 19.56 189.82 19.89C189.4 20.27 189.12 20.84 188.35 20.89Z" fill="#E47A48"/>
<path d="M194.01 20.74C194.28 20.74 195.25 21.53 195.35 21.86C195.47 22.28 195.12 22.48 194.9 22.74C194.86 22.79 194.81 22.83 194.77 22.87C193.71 23.86 193.34 23.81 192.52 22.62C192.42 22.48 192.36 22.33 192.39 22.16C192.45 21.79 193.66 20.74 194.01 20.74Z" fill="#E47A48"/>
<path d="M193.74 18.52C193.75 18.83 193.72 18.97 193.6 19.08C193.46 19.21 193.33 19.34 193.2 19.47C192.12 20.52 191.72 20.46 190.87 19.2C190.71 18.96 190.68 18.75 190.91 18.55C191.3 18.21 191.68 17.86 192.08 17.52C192.34 17.29 192.63 17.29 192.85 17.55C193.15 17.91 193.65 18.14 193.74 18.52Z" fill="#E47A48"/>
<path d="M192 26.66C191.96 26.49 192.06 26.37 192.19 26.25C192.31 26.14 192.41 26 192.53 25.89C193.64 24.89 194.06 24.97 194.81 26.28C194.98 26.57 194.85 26.77 194.67 26.94C194.31 27.28 193.92 27.59 193.53 27.91C193.46 27.97 193.35 28.01 193.25 28.01C192.91 28.01 192 27.02 192 26.66Z" fill="#E47A48"/>
<path d="M182.92 22.96C182.85 23.04 182.78 23.14 182.69 23.22C182.47 23.42 182.24 23.59 182.03 23.79C181.29 24.52 181.38 24.64 180.5 23.7C179.8 22.96 179.81 22.95 180.56 22.25C180.73 22.1 180.91 21.95 181.08 21.8C181.68 21.27 181.69 21.26 182.21 21.89C182.45 22.18 182.65 22.49 182.87 22.79C182.9 22.84 182.9 22.89 182.92 22.96Z" fill="#E47A48"/>
<path d="M48.66 62.27C48.26 62.52 48.07 62.86 48.1 63.35C48.13 63.99 48.1 64.64 48.1 65.28C48.1 65.71 47.86 65.86 47.47 65.86C47.06 65.86 47.02 65.59 47.01 65.27C47 64.13 47.01 62.99 47.12 61.85C47.15 61.51 47.29 61.44 47.56 61.63C47.85 61.83 48.16 61.91 48.5 61.85C48.51 62 48.5 62.17 48.66 62.27Z" fill="#F2A16C"/>
<path d="M106.58 63.72C106.58 64.24 106.58 64.76 106.58 65.28C106.58 65.72 106.31 65.85 105.93 65.86C105.49 65.88 105.5 65.57 105.5 65.27C105.5 64.28 105.49 63.3 105.48 62.31C105.48 61.94 105.52 61.59 106 61.58C106.51 61.57 106.59 61.93 106.58 62.35C106.57 62.81 106.58 63.27 106.58 63.72Z" fill="#F2A16C"/>
<path d="M65.02 61.49C65.17 60.82 66.19 59.87 66.94 59.77C67.8 59.65 68.63 59.77 69.38 60.26C69.61 60.41 69.77 60.59 69.67 60.87C69.55 61.2 69.29 61.05 69.09 60.98C68.4 60.75 67.69 60.88 66.99 60.86C66.48 60.85 66.17 61.3 65.75 61.49C65.51 60.9 65.26 61.18 65.02 61.49Z" fill="#F2A16C"/>
<path d="M169.13 62.5C168.88 63.38 169.05 64.27 169 65.16C168.99 65.38 169.06 65.64 168.82 65.78C168.63 65.89 168.42 65.9 168.22 65.82C168.01 65.73 168 65.54 168 65.34C168 64.32 167.99 63.3 167.99 62.28C167.99 61.52 168.09 61.46 168.78 61.78C168.86 61.82 168.93 61.85 169 61.89C169.02 62.1 168.92 62.33 169.13 62.5Z" fill="#F2A16C"/>
<path d="M192.63 23.95C192.63 24.22 191.72 25.35 191.47 25.34C191.11 25.32 190.91 25.01 190.69 24.78C190.46 24.53 190.11 24.32 190.22 23.91C190.29 23.65 191.42 22.85 191.63 22.87C191.9 22.88 192.63 23.67 192.63 23.95Z" fill="#E47A48"/>
<path d="M65.77 64.33C66.16 64.63 66.58 64.9 67.03 65.1C67.41 65.27 67.76 65.31 68.13 65.06C68.46 64.83 68.86 64.78 69.24 64.72C69.4 64.7 69.57 64.63 69.68 64.82C69.76 64.98 69.74 65.15 69.65 65.29C69.56 65.42 69.45 65.56 69.31 65.64C68.3 66.29 66.29 65.99 65.52 65.09C65.49 65.05 65.5 64.98 65.49 64.92C65.59 64.73 65.68 64.53 65.77 64.33Z" fill="#F2A16C"/>
<path d="M26.99 64.23C26.76 64.44 26.53 64.29 26.31 64.22C26.3 63.89 26.28 63.56 26.27 63.22C26.26 62.74 26.01 62.38 25.59 62.29C25.06 62.17 24.49 62.06 24 62.47C23.66 62.51 23.47 62.4 23.53 62.02C24.32 61.36 25.22 61.36 26.04 61.83C26.91 62.34 27.12 63.25 26.99 64.23Z" fill="#E47A48"/>
<path d="M179.38 17.32C179.38 17.59 178.62 18.33 178.33 18.35C178.14 18.36 177.38 17.6 177.37 17.39C177.36 17.12 178.29 16.24 178.56 16.26C178.88 16.27 179.38 16.92 179.38 17.32Z" fill="#E47A48"/>
<path d="M187.47 16.34C187.48 16.3 187.5 16.28 187.53 16.25C187.69 16.2 187.84 16.15 188 16.1C188.9 16.6 189.01 17.18 188.29 17.73C187.81 18.1 187.41 18 186.96 17.39C186.59 16.89 186.96 16.67 187.33 16.46C187.41 16.47 187.46 16.43 187.47 16.34Z" fill="#E47A48"/>
<path d="M65.77 64.33C65.68 64.53 65.59 64.73 65.49 64.93C64.58 64.16 64.39 62.8 65.01 61.49C65.26 61.18 65.5 60.9 65.75 61.49C65.23 62.38 65.24 63.64 65.77 64.33Z" fill="#E47A48"/>
<path d="M32.76 61.89C32.86 62.06 33.19 61.96 33.2 62.21C33.21 62.4 32.99 62.41 32.86 62.49C31.47 61.76 30.44 62.21 30.36 63.59C30.16 63.59 29.95 63.6 29.75 63.6C29.69 62 31.21 60.92 32.76 61.89Z" fill="#E47A48"/>
<path d="M171.95 62.85C172.08 63.7 171.98 64.55 172 65.4C172.01 65.69 171.9 65.92 171.59 65.9C171.32 65.88 171.23 65.67 171.24 65.41C171.25 64.89 171.24 64.37 171.25 63.85C171.26 63.39 171.23 62.94 171.11 62.5C171.5 62.36 171.57 62.97 171.95 62.85Z" fill="#F2A16C"/>
<path d="M188.96 22.11C189.42 22.11 189.7 22.33 189.73 22.8C189.76 23.22 189.17 23.74 188.68 23.73C188.14 23.72 188.02 23.32 187.99 22.9C187.96 22.46 188.4 22.11 188.96 22.11Z" fill="#E47A48"/>
<path d="M57 61.97C57.29 62.16 57.18 62.34 56.99 62.52C56.82 62.44 56.66 62.36 56.48 62.29C55.4 61.86 54.56 62.36 54.47 63.47C54.14 63.56 54.05 63.24 53.85 63.1C53.87 63.06 53.88 63.03 53.89 62.99C53.91 62.93 53.94 62.87 53.96 62.81C54.36 61.58 55.8 61.37 56.57 61.78C56.72 61.85 56.8 62.03 57 61.97Z" fill="#E47A48"/>
<path d="M192.37 29.05C192.36 29.36 191.73 30.09 191.59 29.96C191.33 29.72 190.75 29.84 190.77 29.28C190.78 28.88 191.33 28.22 191.66 28.23C191.92 28.23 192.38 28.76 192.37 29.05Z" fill="#E47A48"/>
<path d="M187.13 15.62C186.91 15.55 186.84 15.34 186.72 15.18C186.53 14.96 186.32 14.72 186.66 14.45C187.01 14.17 187.35 13.75 187.84 14.12C188.16 14.35 188.39 14.68 188.07 15.1C187.61 15.01 187.57 15.69 187.13 15.62Z" fill="#E47A48"/>
<path d="M171.95 62.85C171.57 62.97 171.49 62.37 171.11 62.49C170.45 62.01 169.79 62.22 169.13 62.5C168.92 62.34 169.02 62.11 169 61.9C169.18 61.86 169.38 61.85 169.54 61.77C170.69 61.21 171.65 61.64 171.95 62.85Z" fill="#E47A48"/>
<path d="M48.66 62.27C48.5 62.17 48.5 62.01 48.5 61.85C50.05 61.22 50.82 61.71 50.98 63.36C50.69 63.44 50.53 63.12 50.27 63.11C49.95 62.16 49.95 62.16 48.66 62.27Z" fill="#E47A48"/>
<path d="M50.27 63.1C50.53 63.11 50.69 63.43 50.98 63.35C50.99 64.04 51 64.72 51.01 65.41C51.02 65.67 50.97 65.87 50.65 65.87C50.35 65.86 50.26 65.67 50.25 65.41C50.26 64.64 50.27 63.87 50.27 63.1Z" fill="#F2A16C"/>
<path d="M182.4 19.99C182.21 19.73 181.74 19.67 181.74 19.18C181.74 18.93 182.45 18.2 182.64 18.3C182.93 18.46 183.37 18.54 183.36 19.03C183.37 19.38 182.8 20 182.4 19.99Z" fill="#E47A48"/>
<path d="M195.86 19.28C195.86 19.65 195.4 20.2 195.08 20.13C194.65 20.04 194.41 19.63 194.41 19.29C194.4 18.81 194.85 18.64 195.29 18.64C195.69 18.62 195.89 18.85 195.86 19.28Z" fill="#E47A48"/>
<path d="M191.49 21.48C191.47 21.73 191.24 22.02 190.76 22C190.44 21.99 190.13 21.87 190.11 21.48C190.08 21.08 190.78 20.45 191.16 20.49C191.37 20.52 191.51 20.83 191.49 21.48Z" fill="#E47A48"/>
<path d="M197.01 24.83C197 24.91 197.01 25.09 196.98 25.1C196.44 25.25 195.97 25.48 195.61 25.93C195.56 25.99 195.43 25.85 195.41 25.75C195.38 25.59 195.33 25.38 195.49 25.3C195.83 25.13 195.97 24.81 196.17 24.53C196.29 24.36 196.42 24.1 196.7 24.2C196.97 24.28 197.02 24.54 197.01 24.83Z" fill="#F2A16C"/>
<path d="M195.71 28.02C195.65 28.02 195.59 28.02 195.53 28.03C195.45 28.02 195.38 28.01 195.3 28C195.16 27.23 195.3 26.88 195.79 26.87C196.07 26.86 196.44 26.71 196.58 27.14C196.71 27.57 196.55 27.86 196.13 28.02C195.99 28.01 195.85 28.02 195.71 28.02Z" fill="#E47A48"/>
<path d="M184.86 17.99C184.73 18.55 184.2 18.44 183.82 18.57C183.72 18.6 183.61 18.4 183.62 18.24C183.64 17.96 183.53 17.65 183.84 17.46C184.04 17.34 184.24 17.25 184.48 17.28C184.56 17.54 184.65 17.79 184.86 17.99Z" fill="#E47A48"/>
<path d="M180.44 19C180.17 18.87 179.97 18.68 179.87 18.39C180.07 18.02 180.23 17.59 180.78 17.77C180.94 17.82 181.16 17.87 181.17 18.11C181.18 18.32 181.07 18.46 180.9 18.56C180.72 18.68 180.43 18.69 180.44 19Z" fill="#F2A16C"/>
<path d="M186.38 19.12C186.01 19.16 185.76 19.02 185.77 18.67C185.78 18.22 186.12 18.13 186.5 18.11C186.8 18.1 187 18.2 186.96 18.52C186.92 18.87 186.82 19.19 186.38 19.12Z" fill="#E47A48"/>
<path d="M188.62 14.11C188.59 13.64 188.8 13.47 189.21 13.5C189.47 13.52 189.76 13.53 189.71 13.88C189.64 14.38 189.17 14.4 188.82 14.47C188.53 14.52 188.66 14.21 188.62 14.11Z" fill="#E47A48"/>
<path d="M105.52 60.16C105.48 59.82 105.65 59.71 105.96 59.74C106.24 59.76 106.51 59.77 106.5 60.16C106.5 60.54 106.25 60.67 105.94 60.7C105.56 60.73 105.55 60.43 105.52 60.16Z" fill="#F2A16C"/>
<path d="M104.38 46.1C102.12 46.09 99.87 46.09 97.61 46.08C97.97 45.93 98.35 46.01 98.72 46.01C100.39 46 102.05 46 103.72 46C103.94 46 104.18 45.95 104.38 46.1Z" fill="#90B8BF"/>
<path d="M196.49 21.13C196.48 21.35 196.5 21.65 196.17 21.6C195.87 21.55 195.44 21.51 195.42 21.11C195.41 20.86 195.64 20.62 195.96 20.62C196.29 20.61 196.53 20.74 196.49 21.13Z" fill="#F2A16C"/>
<path d="M196.19 23.52C195.93 23.53 195.76 23.47 195.75 23.12C195.75 22.62 196.09 22.64 196.41 22.6C196.75 22.55 196.74 22.84 196.75 23.03C196.78 23.39 196.55 23.54 196.19 23.52Z" fill="#F2A16C"/>
<path d="M183.07 24.01C183.11 23.78 183.14 23.5 183.43 23.52C183.68 23.54 184.04 23.65 183.98 23.96C183.93 24.24 183.67 24.56 183.37 24.58C183.06 24.6 183.14 24.22 183.07 24.01Z" fill="#E47A48"/>
<path d="M194.54 24.89C194.22 24.91 194.17 24.66 194.14 24.45C194.11 24.25 194.17 23.93 194.41 24.04C194.68 24.17 195.18 23.88 195.21 24.36C195.23 24.72 194.81 24.78 194.54 24.89Z" fill="#F2A16C"/>
<path d="M187.75 21.99C187.75 22.26 187.72 22.5 187.37 22.5C187.11 22.5 186.87 22.31 186.92 22.11C186.98 21.88 187.03 21.5 187.43 21.51C187.76 21.5 187.75 21.75 187.75 21.99Z" fill="#E47A48"/>
<path d="M183.52 16.75C183.49 17.02 183.56 17.3 183.19 17.26C182.93 17.23 182.71 17.14 182.74 16.8C182.77 16.49 182.9 16.28 183.22 16.26C183.65 16.24 183.45 16.6 183.52 16.75Z" fill="#E47A48"/>
<path d="M190.8 28.01C190.62 27.99 190.32 28.05 190.35 27.7C190.39 27.32 190.78 27.37 191.03 27.28C191.24 27.2 191.38 27.35 191.38 27.58C191.39 27.95 191.14 28.01 190.8 28.01Z" fill="#E47A48"/>
<path d="M183.89 25.03C184.12 25.13 184.38 25.2 184.35 25.53C184.33 25.8 184.12 25.97 183.92 25.97C183.64 25.96 183.62 25.68 183.62 25.45C183.62 25.24 183.63 25.05 183.89 25.03Z" fill="#F2A16C"/>
<path d="M119.6 36.47C119.67 37.94 119.66 39.41 119.61 40.87C119.48 39.41 119.47 37.94 119.6 36.47Z" fill="#90B8BF"/>
<path d="M189.52 28.35C189.72 28.37 189.97 28.36 189.95 28.65C189.94 28.89 189.79 29.08 189.51 29.09C189.25 29.11 189.13 28.97 189.12 28.72C189.12 28.46 189.26 28.35 189.52 28.35Z" fill="#F2A16C"/>
<path d="M185.77 16.75C185.54 16.76 185.31 16.9 185.28 16.6C185.25 16.28 185.5 16.25 185.73 16.25C185.97 16.25 186.32 16.18 186.32 16.5C186.33 16.97 185.89 16.6 185.77 16.75Z" fill="#F2A16C"/>
<path d="M187.13 15.62C187.58 15.69 187.62 15.02 188.07 15.1C187.78 15.42 187.76 15.76 188.01 16.11C187.85 16.16 187.7 16.21 187.54 16.26C187.53 15.97 187.28 15.82 187.13 15.62Z" fill="#F2A16C"/>
<path d="M193.72 16.92C193.72 17.17 193.73 17.37 193.46 17.36C193.27 17.35 193.04 17.33 193.09 17.08C193.13 16.87 193.18 16.58 193.43 16.55C193.7 16.51 193.69 16.79 193.72 16.92Z" fill="#F2A16C"/>
<path d="M187 27.06C187 27.29 187 27.49 186.7 27.49C186.47 27.49 186.34 27.39 186.37 27.16C186.39 26.94 186.42 26.67 186.69 26.65C186.95 26.63 187.02 26.84 187 27.06Z" fill="#F2A16C"/>
<path d="M177.21 18.62C177.41 18.59 177.5 18.69 177.49 18.9C177.48 19.08 177.44 19.25 177.23 19.25C177.01 19.25 176.91 19.08 176.88 18.88C176.86 18.66 177.01 18.61 177.21 18.62Z" fill="#E47A48"/>
<path d="M194.74 17.75C194.74 17.92 194.65 18.01 194.48 18C194.3 17.99 194.16 17.91 194.12 17.73C194.08 17.52 194.23 17.5 194.38 17.5C194.56 17.49 194.71 17.52 194.74 17.75Z" fill="#F2A16C"/>
<path d="M182.26 17.51C182.16 17.71 182.03 17.9 181.76 17.88C181.61 17.87 181.56 17.74 181.6 17.6C181.66 17.37 181.86 17.29 182.07 17.25C182.23 17.23 182.29 17.35 182.26 17.51Z" fill="#F2A16C"/>
<path d="M105.67 47.39C105.61 47.08 105.63 46.75 105.38 46.5C105.52 46.46 105.55 46.35 105.55 46.22C105.8 46.41 105.85 46.72 106.01 46.96C105.68 46.94 105.8 47.27 105.67 47.39Z" fill="#90B8BF"/>
<path d="M184.86 17.99C184.66 17.79 184.56 17.54 184.49 17.27C184.9 17.36 185.15 17.54 184.86 17.99Z" fill="#F2A16C"/>
<path d="M119.58 42.96C119.62 43.31 119.73 43.66 119.54 44C119.41 43.64 119.21 43.29 119.58 42.96Z" fill="#90B8BF"/>
<path d="M144.59 46.09C144.66 46.6 144.64 47.11 144.6 47.62C144.45 47.12 144.48 46.61 144.59 46.09Z" fill="#90B8BF"/>
<path d="M195.3 28C195.38 28.01 195.45 28.02 195.53 28.03C195.45 28.14 195.37 28.26 195.29 28.37C195.13 28.35 195.04 28.25 194.99 28.11C195.09 28.07 195.2 28.03 195.3 28Z" fill="#F2A16C"/>
<path d="M144.59 41.1C144.65 41.53 144.65 41.96 144.59 42.39C144.47 41.96 144.47 41.53 144.59 41.1Z" fill="#90B8BF"/>
<path d="M12.53 42.11C12.71 42.43 12.63 42.78 12.63 43.11C12.46 42.79 12.5 42.45 12.53 42.11Z" fill="#90B8BF"/>
<path d="M50.37 40.3C50.2 40.42 50.03 40.44 49.88 40.26C50.06 40.09 50.22 40.1 50.37 40.3Z" fill="#90B8BF"/>
<path d="M144.59 43.09C144.65 43.35 144.65 43.62 144.59 43.88C144.47 43.62 144.47 43.36 144.59 43.09Z" fill="#90B8BF"/>
<path d="M12.53 40.86C12.69 41.07 12.68 41.28 12.54 41.49C12.53 41.28 12.53 41.07 12.53 40.86Z" fill="#90B8BF"/>
<path d="M95.64 46.1C95.4 45.92 95.5001 45.69 95.5301 45.47C95.6601 45.66 95.59 45.89 95.64 46.1Z" fill="#90B8BF"/>
<path d="M195.71 28.02C195.85 28.02 196 28.01 196.14 28.01C196 28.14 195.85 28.1 195.71 28.02Z" fill="#F2A16C"/>
<path d="M119.59 42.1C119.59 42.2 119.59 42.29 119.58 42.39C119.51 42.29 119.51 42.19 119.59 42.1Z" fill="#90B8BF"/>
<path d="M144.59 44.59C144.59 44.69 144.59 44.79 144.59 44.88C144.5 44.79 144.5 44.69 144.59 44.59Z" fill="#90B8BF"/>
<path d="M144.59 44.09C144.59 44.19 144.59 44.29 144.59 44.38C144.5 44.29 144.5 44.19 144.59 44.09Z" fill="#90B8BF"/>
<path d="M144.59 42.59C144.59 42.69 144.59 42.79 144.59 42.88C144.5 42.79 144.5 42.69 144.59 42.59Z" fill="#90B8BF"/>
<path d="M97.39 46.08C97.34 46.09 97.29 46.1 97.24 46.1C97.29 46.04 97.33 46.01 97.39 46.08Z" fill="#90B8BF"/>
<path d="M34.4 46.46C34.35 46.45 34.3 46.44 34.25 46.44C34.3 46.45 34.35 46.46 34.4 46.46Z" fill="#90B8BF"/>
<path d="M132.25 47.74C132.26 47.7 132.27 47.65 132.28 47.61C132.28 47.64 132.29 47.67 132.29 47.7C132.29 47.72 132.26 47.73 132.25 47.74Z" fill="#90B8BF"/>
<path d="M53.97 62.81C53.95 62.87 53.92 62.93 53.9 62.99C53.93 62.93 53.95 62.87 53.97 62.81Z" fill="#F2A16C"/>
<path d="M122.26 42.87C122.27 42.82 122.28 42.77 122.29 42.71C122.36 42.78 122.33 42.83 122.26 42.87Z" fill="#90B8BF"/>
<path d="M187.47 16.34C187.46 16.42 187.41 16.47 187.33 16.47C187.38 16.43 187.43 16.39 187.47 16.34Z" fill="#F2A16C"/>
<path d="M144.52 39.98C144.54 40.03 144.56 40.08 144.59 40.14C144.57 40.09 144.55 40.03 144.52 39.98Z" fill="#90B8BF"/>
<path d="M164.59 39.87C164.58 39.84 164.56 39.8 164.55 39.77C164.55 39.76 164.58 39.74 164.59 39.73C164.59 39.78 164.59 39.83 164.59 39.87Z" fill="#90B8BF"/>
<path d="M119.6 36.1C119.6 36.15 119.6 36.21 119.6 36.26C119.53 36.21 119.54 36.15 119.6 36.1Z" fill="#90B8BF"/>
<path d="M19.87 46.47C19.92 46.41 19.97 46.4 20.03 46.46C19.98 46.47 19.92 46.47 19.87 46.47Z" fill="#90B8BF"/>
<path d="M51 42.49C50.95 42.46 50.91 42.42 50.86 42.39C50.94 42.38 50.98 42.42 51 42.49Z" fill="#90B8BF"/>
<path d="M50.53 42.39C50.47 42.45 50.42 42.45 50.37 42.39C50.42 42.39 50.47 42.39 50.53 42.39Z" fill="#90B8BF"/>
<path d="M114.99 42.5C114.94 42.47 114.89 42.43 114.85 42.4C114.93 42.38 114.97 42.42 114.99 42.5Z" fill="#90B8BF"/>
<path d="M114.65 42.39C114.59 42.46 114.54 42.46 114.48 42.39C114.53 42.39 114.59 42.39 114.65 42.39Z" fill="#90B8BF"/>
<path d="M30.51 40.25C30.68 40.28 30.85 40.32 31.02 40.35C30.84 40.37 30.64 40.46 30.51 40.25Z" fill="#90B8BF"/>
</svg>
