<svg width="403" height="121" viewBox="0 0 403 121" fill="none" xmlns="http://www.w3.org/2000/svg">
<path d="M3.984 47.5V13.9H11.76V47.5H3.984ZM30.294 47.884C27.862 47.884 25.67 47.34 23.718 46.252C21.766 45.132 20.214 43.58 19.062 41.596C17.942 39.612 17.382 37.276 17.382 34.588C17.382 31.868 17.942 29.516 19.062 27.532C20.214 25.548 21.766 24.012 23.718 22.924C25.67 21.836 27.862 21.292 30.294 21.292C32.47 21.292 34.374 21.772 36.006 22.732C37.638 23.692 38.902 25.148 39.798 27.1C40.694 29.052 41.142 31.548 41.142 34.588C41.142 37.596 40.71 40.092 39.846 42.076C38.982 44.028 37.734 45.484 36.102 46.444C34.502 47.404 32.566 47.884 30.294 47.884ZM31.59 41.74C32.806 41.74 33.91 41.452 34.902 40.876C35.894 40.3 36.678 39.484 37.254 38.428C37.862 37.34 38.166 36.06 38.166 34.588C38.166 33.084 37.862 31.804 37.254 30.748C36.678 29.692 35.894 28.876 34.902 28.3C33.91 27.724 32.806 27.436 31.59 27.436C30.342 27.436 29.222 27.724 28.23 28.3C27.238 28.876 26.438 29.692 25.83 30.748C25.254 31.804 24.966 33.084 24.966 34.588C24.966 36.06 25.254 37.34 25.83 38.428C26.438 39.484 27.238 40.3 28.23 40.876C29.222 41.452 30.342 41.74 31.59 41.74ZM38.358 47.5V42.22L38.502 34.54L38.022 26.908V11.884H45.51V47.5H38.358ZM65.2564 47.884C62.3124 47.884 59.7204 47.308 57.4804 46.156C55.2724 45.004 53.5604 43.436 52.3444 41.452C51.1284 39.436 50.5204 37.148 50.5204 34.588C50.5204 31.996 51.1124 29.708 52.2964 27.724C53.5124 25.708 55.1604 24.14 57.2404 23.02C59.3204 21.868 61.6724 21.292 64.2964 21.292C66.8244 21.292 69.0964 21.836 71.1124 22.924C73.1604 23.98 74.7764 25.516 75.9604 27.532C77.1444 29.516 77.7364 31.9 77.7364 34.684C77.7364 34.972 77.7204 35.308 77.6884 35.692C77.6564 36.044 77.6244 36.38 77.5924 36.7H56.6164V32.332H73.6564L70.7764 33.628C70.7764 32.284 70.5044 31.116 69.9604 30.124C69.4164 29.132 68.6644 28.364 67.7044 27.82C66.7444 27.244 65.6244 26.956 64.3444 26.956C63.0644 26.956 61.9284 27.244 60.9364 27.82C59.9764 28.364 59.2244 29.148 58.6804 30.172C58.1364 31.164 57.8644 32.348 57.8644 33.724V34.876C57.8644 36.284 58.1684 37.532 58.7764 38.62C59.4164 39.676 60.2964 40.492 61.4164 41.068C62.5684 41.612 63.9124 41.884 65.4484 41.884C66.8244 41.884 68.0244 41.676 69.0484 41.26C70.1044 40.844 71.0644 40.22 71.9284 39.388L75.9124 43.708C74.7284 45.052 73.2404 46.092 71.4484 46.828C69.6564 47.532 67.5924 47.884 65.2564 47.884ZM97.8585 47.5V42.46L97.3785 41.356V32.332C97.3785 30.732 96.8825 29.484 95.8905 28.588C94.9305 27.692 93.4425 27.244 91.4265 27.244C90.0505 27.244 88.6905 27.468 87.3465 27.916C86.0345 28.332 84.9145 28.908 83.9865 29.644L81.2985 24.412C82.7065 23.42 84.4025 22.652 86.3865 22.108C88.3705 21.564 90.3865 21.292 92.4345 21.292C96.3705 21.292 99.4265 22.22 101.603 24.076C103.779 25.932 104.867 28.828 104.867 32.764V47.5H97.8585ZM89.9865 47.884C87.9705 47.884 86.2425 47.548 84.8025 46.876C83.3625 46.172 82.2585 45.228 81.4905 44.044C80.7225 42.86 80.3385 41.532 80.3385 40.06C80.3385 38.524 80.7065 37.18 81.4425 36.028C82.2105 34.876 83.4105 33.98 85.0425 33.34C86.6745 32.668 88.8025 32.332 91.4265 32.332H98.2905V36.7H92.2425C90.4825 36.7 89.2665 36.988 88.5945 37.564C87.9545 38.14 87.6345 38.86 87.6345 39.724C87.6345 40.684 88.0025 41.452 88.7385 42.028C89.5065 42.572 90.5465 42.844 91.8585 42.844C93.1065 42.844 94.2265 42.556 95.2185 41.98C96.2105 41.372 96.9305 40.492 97.3785 39.34L98.5305 42.796C97.9865 44.46 96.9945 45.724 95.5545 46.588C94.1145 47.452 92.2585 47.884 89.9865 47.884ZM120.332 47.884C118.124 47.884 115.996 47.628 113.948 47.116C111.932 46.572 110.332 45.9 109.148 45.1L111.644 39.724C112.828 40.46 114.22 41.068 115.82 41.548C117.452 41.996 119.052 42.22 120.62 42.22C122.348 42.22 123.564 42.012 124.268 41.596C125.004 41.18 125.372 40.604 125.372 39.868C125.372 39.26 125.084 38.812 124.508 38.524C123.964 38.204 123.228 37.964 122.299 37.804C121.372 37.644 120.348 37.484 119.228 37.324C118.14 37.164 117.036 36.956 115.916 36.7C114.796 36.412 113.772 35.996 112.844 35.452C111.916 34.908 111.164 34.172 110.588 33.244C110.044 32.316 109.771 31.116 109.771 29.644C109.771 28.012 110.236 26.572 111.164 25.324C112.124 24.076 113.5 23.1 115.292 22.396C117.084 21.66 119.228 21.292 121.724 21.292C123.484 21.292 125.276 21.484 127.1 21.868C128.924 22.252 130.444 22.812 131.66 23.548L129.164 28.876C127.916 28.14 126.652 27.644 125.372 27.388C124.124 27.1 122.908 26.956 121.724 26.956C120.06 26.956 118.844 27.18 118.076 27.628C117.308 28.076 116.924 28.652 116.924 29.356C116.924 29.996 117.196 30.476 117.74 30.796C118.316 31.116 119.068 31.372 119.996 31.564C120.924 31.756 121.932 31.932 123.02 32.092C124.14 32.22 125.26 32.428 126.38 32.716C127.5 33.004 128.508 33.42 129.404 33.964C130.332 34.476 131.084 35.196 131.66 36.124C132.236 37.02 132.524 38.204 132.524 39.676C132.524 41.276 132.044 42.7 131.084 43.948C130.124 45.164 128.732 46.124 126.908 46.828C125.116 47.532 122.924 47.884 120.332 47.884ZM148.865 47.5V42.46L161.825 30.22C162.849 29.292 163.601 28.46 164.081 27.724C164.561 26.988 164.881 26.316 165.041 25.708C165.233 25.1 165.329 24.54 165.329 24.028C165.329 22.684 164.865 21.66 163.937 20.956C163.041 20.22 161.713 19.852 159.953 19.852C158.545 19.852 157.233 20.124 156.017 20.668C154.833 21.212 153.825 22.06 152.993 23.212L147.329 19.564C148.609 17.644 150.401 16.124 152.705 15.004C155.009 13.884 157.665 13.324 160.673 13.324C163.169 13.324 165.345 13.74 167.201 14.572C169.089 15.372 170.545 16.508 171.569 17.98C172.625 19.452 173.153 21.212 173.153 23.26C173.153 24.348 173.009 25.436 172.721 26.524C172.465 27.58 171.921 28.7 171.089 29.884C170.289 31.068 169.105 32.396 167.537 33.868L156.785 43.996L155.297 41.164H174.257V47.5H148.865ZM193.172 47.5V13.9H200.948V41.164H217.796V47.5H193.172ZM237.64 47.5V42.46L237.16 41.356V32.332C237.16 30.732 236.664 29.484 235.672 28.588C234.712 27.692 233.224 27.244 231.208 27.244C229.832 27.244 228.472 27.468 227.128 27.916C225.816 28.332 224.696 28.908 223.768 29.644L221.08 24.412C222.488 23.42 224.184 22.652 226.168 22.108C228.152 21.564 230.168 21.292 232.216 21.292C236.152 21.292 239.208 22.22 241.384 24.076C243.56 25.932 244.648 28.828 244.648 32.764V47.5H237.64ZM229.768 47.884C227.752 47.884 226.024 47.548 224.584 46.876C223.144 46.172 222.04 45.228 221.272 44.044C220.504 42.86 220.12 41.532 220.12 40.06C220.12 38.524 220.488 37.18 221.224 36.028C221.992 34.876 223.192 33.98 224.824 33.34C226.456 32.668 228.584 32.332 231.208 32.332H238.072V36.7H232.024C230.264 36.7 229.048 36.988 228.376 37.564C227.736 38.14 227.416 38.86 227.416 39.724C227.416 40.684 227.784 41.452 228.52 42.028C229.288 42.572 230.328 42.844 231.64 42.844C232.888 42.844 234.008 42.556 235 41.98C235.992 41.372 236.712 40.492 237.16 39.34L238.312 42.796C237.768 44.46 236.776 45.724 235.336 46.588C233.896 47.452 232.04 47.884 229.768 47.884ZM262.321 47.884C260.177 47.884 258.257 47.468 256.561 46.636C254.897 45.804 253.601 44.54 252.673 42.844C251.745 41.116 251.281 38.924 251.281 36.268V21.676H258.769V35.164C258.769 37.308 259.217 38.892 260.113 39.916C261.041 40.908 262.337 41.404 264.001 41.404C265.153 41.404 266.177 41.164 267.073 40.684C267.969 40.172 268.673 39.404 269.185 38.38C269.697 37.324 269.953 36.012 269.953 34.444V21.676H277.441V47.5H270.337V40.396L271.633 42.46C270.769 44.252 269.489 45.612 267.793 46.54C266.129 47.436 264.305 47.884 262.321 47.884ZM300.074 21.292C302.122 21.292 303.946 21.708 305.546 22.54C307.178 23.34 308.458 24.588 309.386 26.284C310.314 27.948 310.778 30.092 310.778 32.716V47.5H303.29V33.868C303.29 31.788 302.826 30.252 301.898 29.26C301.002 28.268 299.722 27.772 298.058 27.772C296.874 27.772 295.802 28.028 294.842 28.54C293.914 29.02 293.178 29.772 292.634 30.796C292.122 31.82 291.866 33.132 291.866 34.732V47.5H284.378V21.676H291.53V28.828L290.186 26.668C291.114 24.94 292.442 23.612 294.17 22.684C295.898 21.756 297.866 21.292 300.074 21.292ZM330.233 47.884C327.449 47.884 324.969 47.324 322.793 46.204C320.617 45.052 318.905 43.468 317.657 41.452C316.441 39.436 315.833 37.148 315.833 34.588C315.833 31.996 316.441 29.708 317.657 27.724C318.905 25.708 320.617 24.14 322.793 23.02C324.969 21.868 327.449 21.292 330.233 21.292C332.953 21.292 335.321 21.868 337.337 23.02C339.353 24.14 340.841 25.756 341.801 27.868L335.993 30.988C335.321 29.772 334.473 28.876 333.449 28.3C332.457 27.724 331.369 27.436 330.185 27.436C328.905 27.436 327.753 27.724 326.729 28.3C325.705 28.876 324.889 29.692 324.281 30.748C323.705 31.804 323.417 33.084 323.417 34.588C323.417 36.092 323.705 37.372 324.281 38.428C324.889 39.484 325.705 40.3 326.729 40.876C327.753 41.452 328.905 41.74 330.185 41.74C331.369 41.74 332.457 41.468 333.449 40.924C334.473 40.348 335.321 39.436 335.993 38.188L341.801 41.356C340.841 43.436 339.353 45.052 337.337 46.204C335.321 47.324 332.953 47.884 330.233 47.884ZM361.668 21.292C363.716 21.292 365.54 21.708 367.14 22.54C368.772 23.34 370.052 24.588 370.98 26.284C371.908 27.948 372.372 30.092 372.372 32.716V47.5H364.884V33.868C364.884 31.788 364.42 30.252 363.492 29.26C362.596 28.268 361.316 27.772 359.652 27.772C358.468 27.772 357.396 28.028 356.436 28.54C355.508 29.02 354.772 29.772 354.228 30.796C353.716 31.82 353.46 33.132 353.46 34.732V47.5H345.972V11.884H353.46V28.828L351.78 26.668C352.708 24.94 354.036 23.612 355.764 22.684C357.492 21.756 359.46 21.292 361.668 21.292Z" fill="white"/>
<path d="M2.13281 105.742C2.30469 105.086 2.53125 103.922 2.8125 102.25C3.10938 100.562 3.28906 99.2969 3.35156 98.4531H4.89844L4.85156 101.125C4.85156 101.453 4.86719 101.93 4.89844 102.555C5.39844 103.305 6.33594 104.016 7.71094 104.688C9.08594 105.344 10.5547 105.672 12.1172 105.672C14.6797 105.672 16.5078 105.102 17.6016 103.961C18.6953 102.82 19.2422 101.414 19.2422 99.7422C19.2422 98.9141 19.1484 98.2188 18.9609 97.6562C18.7891 97.0781 18.4844 96.5938 18.0469 96.2031C17.625 95.7969 17.0859 95.4688 16.4297 95.2188C15.7891 94.9688 14.6719 94.5938 13.0781 94.0938C10.2969 93.3906 8.36719 92.5703 7.28906 91.6328C5.80469 90.3359 5.0625 88.4453 5.0625 85.9609C5.0625 82.8203 6.32031 80.0703 8.83594 77.7109C11.3516 75.3359 14.4453 74.1484 18.1172 74.1484C19.5391 74.1484 20.8594 74.3281 22.0781 74.6875C23.3125 75.0469 24.4453 75.5859 25.4766 76.3047C25.1797 77.4453 24.9453 78.4766 24.7734 79.3984C24.6016 80.3047 24.3984 81.625 24.1641 83.3594H22.6406C22.6719 82.7344 22.6875 82.1875 22.6875 81.7188C22.6875 81.5156 22.6719 80.7812 22.6406 79.5156C22.2969 79.0469 21.9453 78.6797 21.5859 78.4141C21.0234 77.9922 20.2969 77.6328 19.4062 77.3359C18.5156 77.0234 17.5156 76.8672 16.4062 76.8672C15 76.8672 13.7812 77.1406 12.75 77.6875C11.7344 78.2344 10.9766 78.9688 10.4766 79.8906C9.97656 80.7969 9.71875 81.9297 9.70312 83.2891C9.71875 84.5078 9.94531 85.4375 10.3828 86.0781C10.8203 86.7188 11.8281 87.3047 13.4062 87.8359C15.4375 88.3047 17.0547 88.7188 18.2578 89.0781C19.4766 89.4219 20.5469 89.8203 21.4688 90.2734C22.4062 90.7109 23.1328 91.4375 23.6484 92.4531C24.1797 93.4688 24.4453 94.6562 24.4453 96.0156C24.4453 98.2812 23.7266 100.383 22.2891 102.32C20.8516 104.258 19.1484 105.742 17.1797 106.773C15.2266 107.805 13.0312 108.32 10.5938 108.32C8.98438 108.32 7.4375 108.094 5.95312 107.641C4.46875 107.188 3.19531 106.555 2.13281 105.742ZM28.4297 90.9766L27.8672 89.6641C30.7578 87.5547 32.9453 86.1484 34.4297 85.4453C35.4766 84.9609 36.3281 84.7188 36.9844 84.7188C37.4531 84.7188 37.8203 84.8672 38.0859 85.1641C38.3672 85.4453 38.5078 85.8984 38.5078 86.5234C38.5078 87.0391 38.4531 87.6016 38.3438 88.2109C38.1562 89.2109 37.7734 90.7969 37.1953 92.9688C36.0703 97.2656 35.3828 100.023 35.1328 101.242C34.9609 102.039 34.875 102.633 34.875 103.023C34.875 103.352 34.9531 103.594 35.1094 103.75C35.2656 103.906 35.4609 103.984 35.6953 103.984C36.0078 103.984 36.375 103.852 36.7969 103.586C37.4688 103.18 38.3203 102.391 39.3516 101.219C40.3828 100.047 41.25 98.8594 41.9531 97.6562C43.1562 95.625 44.0859 93.5312 44.7422 91.375C45.3984 89.2031 45.7891 87.3516 45.9141 85.8203C47.6797 85.7109 49.3828 85.4062 51.0234 84.9062L51.4219 85.3047C50.8125 87.2422 50.0469 89.9375 49.125 93.3906C48.2031 96.8438 47.6016 99.3594 47.3203 100.938C47.1484 101.969 47.0625 102.719 47.0625 103.188C47.0625 103.484 47.125 103.703 47.25 103.844C47.375 103.984 47.5391 104.055 47.7422 104.055C47.9766 104.055 48.2266 103.984 48.4922 103.844C48.8672 103.641 49.7734 103.016 51.2109 101.969L51.6562 103.281L49.0547 105.273C48.0391 106.023 47.1406 106.641 46.3594 107.125C45.5781 107.594 44.9219 107.906 44.3906 108.062C44.0156 108.172 43.6562 108.227 43.3125 108.227C42.8594 108.227 42.4844 108.062 42.1875 107.734C41.9062 107.422 41.7656 106.945 41.7656 106.305C41.7656 105.977 41.7969 105.633 41.8594 105.273C41.9844 104.461 42.2109 103.375 42.5391 102.016L43.875 96.8828C43.1562 98.2109 42.4375 99.3594 41.7188 100.328C40.5312 101.953 39.1797 103.477 37.6641 104.898C36.1484 106.32 34.75 107.328 33.4688 107.922C32.7812 108.234 32.1562 108.391 31.5938 108.391C30.9062 108.391 30.3516 108.156 29.9297 107.688C29.5078 107.234 29.2969 106.562 29.2969 105.672C29.2969 105.094 29.3672 104.438 29.5078 103.703C29.6016 103.156 29.9453 101.789 30.5391 99.6016C31.3203 96.7109 31.875 94.4062 32.2031 92.6875C32.4375 91.4375 32.5547 90.5859 32.5547 90.1328C32.5547 89.7734 32.4922 89.5156 32.3672 89.3594C32.2422 89.2031 32.0781 89.125 31.875 89.125C31.4219 89.125 30.2734 89.7422 28.4297 90.9766ZM56.25 76.2109L56.5547 74.875C59.5547 74.4062 61.6562 74.0156 62.8594 73.7031C64.0781 73.3906 65.1172 73.0391 65.9766 72.6484L66.5391 73.1172C66.3828 73.6797 66.0781 75.0547 65.625 77.2422L62.4375 92.5703C63.4062 91.2266 64.2031 90.2266 64.8281 89.5703C65.7812 88.5703 66.8047 87.7109 67.8984 86.9922C68.9922 86.2578 70.0859 85.7109 71.1797 85.3516C72.2891 84.9922 73.2734 84.8125 74.1328 84.8125C75.1016 84.8125 75.8281 85.1484 76.3125 85.8203C77.0938 86.8828 77.4844 88.4844 77.4844 90.625C77.4844 92.9844 77.0547 95.3594 76.1953 97.75C75.5547 99.5625 74.7266 101.086 73.7109 102.32C72.9609 103.242 71.8984 104.188 70.5234 105.156C69.1484 106.125 67.7109 106.898 66.2109 107.477C64.7266 108.039 63.2969 108.32 61.9219 108.32C60.625 108.32 59.5156 108.109 58.5938 107.688C57.6875 107.281 57.0234 106.68 56.6016 105.883C56.1797 105.07 55.9688 104.164 55.9688 103.164C55.9688 102.727 55.9922 102.25 56.0391 101.734C56.1016 101 56.2188 100.133 56.3906 99.1328L57.5859 92.875C58.2266 89 58.6875 86.2734 58.9688 84.6953C59.7188 80.4922 60.0938 78.0391 60.0938 77.3359C60.0938 77.0547 60.0234 76.8359 59.8828 76.6797C59.7578 76.5234 59.5156 76.4062 59.1562 76.3281C58.7969 76.25 57.8281 76.2109 56.25 76.2109ZM61.1953 101.922C61.1953 103.297 61.5078 104.328 62.1328 105.016C62.7578 105.703 63.5625 106.047 64.5469 106.047C65.5781 106.047 66.5625 105.602 67.5 104.711C68.8438 103.461 69.9219 101.531 70.7344 98.9219C71.5625 96.3125 71.9766 94 71.9766 91.9844C71.9766 90.5469 71.7422 89.5 71.2734 88.8438C70.9453 88.375 70.5156 88.1406 69.9844 88.1406C69.4062 88.1406 68.625 88.4375 67.6406 89.0312C66.6719 89.625 65.6797 90.5547 64.6641 91.8203C63.6484 93.0859 62.8125 94.6484 62.1562 96.5078C61.5156 98.3672 61.1953 100.172 61.1953 101.922ZM81.4453 100.516H82.8984L82.9688 102.766C83.6406 103.547 84.5156 104.203 85.5938 104.734C86.6875 105.25 87.8125 105.508 88.9688 105.508C89.9688 105.508 90.7891 105.359 91.4297 105.062C92.0859 104.75 92.5625 104.305 92.8594 103.727C93.1719 103.133 93.3281 102.547 93.3281 101.969C93.3281 101.391 93.1875 100.859 92.9062 100.375C92.625 99.8906 92.2578 99.5391 91.8047 99.3203C91.3672 99.0859 90.5234 98.8516 89.2734 98.6172C87.0859 98.1953 85.625 97.7734 84.8906 97.3516C84.1719 96.9141 83.6016 96.3047 83.1797 95.5234C82.7578 94.7266 82.5469 93.875 82.5469 92.9688C82.5469 92.1094 82.7266 91.2578 83.0859 90.4141C83.3672 89.7891 83.7578 89.2266 84.2578 88.7266C84.7578 88.2266 85.6641 87.5703 86.9766 86.7578C88.3047 85.9297 89.3438 85.3828 90.0938 85.1172C90.8594 84.8516 91.7656 84.7188 92.8125 84.7188C93.8438 84.7188 94.8438 84.8438 95.8125 85.0938C96.7969 85.3281 97.7578 85.6953 98.6953 86.1953C98.3828 87.6172 98.0938 89.4844 97.8281 91.7969H96.4219L96.1406 89.4766C95.3906 88.7734 94.5391 88.2422 93.5859 87.8828C92.6328 87.5234 91.7031 87.3438 90.7969 87.3438C90.0938 87.3438 89.4297 87.4922 88.8047 87.7891C88.1953 88.0859 87.7344 88.5 87.4219 89.0312C87.1094 89.5469 86.9531 90.1094 86.9531 90.7188C86.9531 91.5781 87.25 92.2812 87.8438 92.8281C88.4375 93.375 89.7969 93.8359 91.9219 94.2109C93.2969 94.4609 94.1641 94.6484 94.5234 94.7734C95.2109 94.9922 95.8125 95.3203 96.3281 95.7578C96.8594 96.1953 97.2812 96.7578 97.5938 97.4453C97.9062 98.1172 98.0625 98.8438 98.0625 99.625C98.0625 100.766 97.8125 101.727 97.3125 102.508C96.8125 103.289 95.9766 104.148 94.8047 105.086C93.6328 106.023 92.5859 106.719 91.6641 107.172C90.3672 107.797 88.7734 108.109 86.8828 108.109C85.7891 108.109 84.7891 108.023 83.8828 107.852C83.2266 107.727 82.0859 107.367 80.4609 106.773C80.6484 106.133 80.8281 105.219 81 104.031C81.2656 102.344 81.4141 101.172 81.4453 100.516ZM119.555 101.711L120.094 103.211C118.078 104.602 116.461 105.641 115.242 106.328C114.023 107.016 112.859 107.523 111.75 107.852C110.641 108.195 109.617 108.367 108.68 108.367C107.445 108.367 106.336 108.102 105.352 107.57C104.367 107.055 103.633 106.297 103.148 105.297C102.664 104.297 102.422 103.156 102.422 101.875C102.422 99.875 102.719 97.8281 103.312 95.7344C103.906 93.6406 104.578 92.1016 105.328 91.1172C106.078 90.1328 107.148 89.2109 108.539 88.3516L112.57 85.9141C113.82 85.2891 115.164 84.9766 116.602 84.9766C117.398 84.9766 118.18 85.0703 118.945 85.2578C119.727 85.4297 120.648 85.7422 121.711 86.1953C121.445 86.8516 121.18 87.7266 120.914 88.8203C120.539 90.3203 120.258 91.6797 120.07 92.8984H118.477C118.617 92.0391 118.688 91.2109 118.688 90.4141C118.688 90.2578 118.68 90.0234 118.664 89.7109C117.977 89.1328 117.258 88.7031 116.508 88.4219C115.758 88.125 114.984 87.9766 114.188 87.9766C113.281 87.9766 112.516 88.1641 111.891 88.5391C111.266 88.8984 110.672 89.5547 110.109 90.5078C109.719 91.1953 109.352 92.1953 109.008 93.5078C108.273 96.3516 107.906 98.6953 107.906 100.539C107.906 102.055 108.242 103.211 108.914 104.008C109.602 104.789 110.469 105.18 111.516 105.18C112.656 105.18 113.977 104.859 115.477 104.219C116.977 103.562 118.336 102.727 119.555 101.711ZM124.688 108.203L124.195 107.594L125.273 103.867C125.883 101.508 126.359 99.4844 126.703 97.7969C127.047 96.0938 127.328 94.375 127.547 92.6406C127.641 91.7812 127.688 91.0703 127.688 90.5078C127.688 90.0547 127.633 89.7578 127.523 89.6172C127.43 89.4609 127.305 89.3828 127.148 89.3828C126.648 89.3828 125.477 90.1016 123.633 91.5391L123.047 90.25C125.172 88.5312 126.75 87.3125 127.781 86.5938C128.812 85.8594 129.789 85.3047 130.711 84.9297C131.148 84.7578 131.516 84.6719 131.812 84.6719C132.188 84.6719 132.508 84.8281 132.773 85.1406C133.039 85.4375 133.172 85.875 133.172 86.4531C133.172 86.9062 133.094 87.5312 132.938 88.3281C132.859 88.7656 132.289 91.2422 131.227 95.7578H131.555C132.711 93.0234 133.883 90.7656 135.07 88.9844C136.258 87.2031 137.312 86.0156 138.234 85.4219C138.844 85.0469 139.531 84.8594 140.297 84.8594C140.75 84.8594 141.227 84.9375 141.727 85.0938C141.461 86.0156 141.234 87.0938 141.047 88.3281C140.859 89.5469 140.75 90.6172 140.719 91.5391L140.18 91.8672C139.414 91.2109 138.594 90.8828 137.719 90.8828C136.891 90.8828 136.133 91.1719 135.445 91.75C134.492 92.5312 133.516 94.0859 132.516 96.4141C131.266 99.3203 130.367 102.914 129.82 107.195L126.211 107.758C125.758 107.852 125.25 108 124.688 108.203ZM149.789 77.6406C149.789 76.6094 150.102 75.7734 150.727 75.1328C151.367 74.4766 152.148 74.1484 153.07 74.1484C153.852 74.1484 154.477 74.3906 154.945 74.875C155.43 75.3438 155.672 75.9688 155.672 76.75C155.672 77.8594 155.367 78.7578 154.758 79.4453C154.148 80.1172 153.375 80.4531 152.438 80.4531C151.609 80.4531 150.961 80.2109 150.492 79.7266C150.023 79.2422 149.789 78.5469 149.789 77.6406ZM142.547 91.7969L141.961 90.5547L145.172 88.1875C146.812 87.0312 147.914 86.2969 148.477 85.9844C149.383 85.4844 150.188 85.125 150.891 84.9062C151.328 84.7812 151.711 84.7188 152.039 84.7188C152.414 84.7188 152.742 84.875 153.023 85.1875C153.32 85.5 153.469 85.9297 153.469 86.4766C153.469 87.0703 153.406 87.6875 153.281 88.3281C153.078 89.3281 152.516 91.5078 151.594 94.8672C150.672 98.2266 150.102 100.43 149.883 101.477C149.664 102.508 149.555 103.188 149.555 103.516C149.555 103.766 149.617 103.961 149.742 104.102C149.883 104.242 150.031 104.312 150.188 104.312C150.375 104.312 150.672 104.203 151.078 103.984C152 103.5 153.031 102.867 154.172 102.086L154.805 103.328C153.57 104.203 152.172 105.148 150.609 106.164C149.047 107.164 147.898 107.797 147.164 108.062C146.695 108.234 146.242 108.32 145.805 108.32C145.273 108.32 144.836 108.117 144.492 107.711C144.148 107.32 143.977 106.711 143.977 105.883C143.977 105.227 144.047 104.547 144.188 103.844C144.359 102.906 144.766 101.234 145.406 98.8281C146.719 93.8594 147.375 90.9375 147.375 90.0625C147.375 89.8594 147.32 89.7031 147.211 89.5938C147.117 89.4844 146.992 89.4297 146.836 89.4297C146.211 89.4297 144.781 90.2188 142.547 91.7969ZM156.422 120.508L155.93 120.156C157.336 114.953 158.25 111.461 158.672 109.68C159.578 105.867 160.508 101.695 161.461 97.1641C161.977 94.6328 162.312 92.7891 162.469 91.6328C162.516 91.1797 162.539 90.7969 162.539 90.4844C162.539 90 162.492 89.6953 162.398 89.5703C162.305 89.4453 162.164 89.3828 161.977 89.3828C161.695 89.3828 161.312 89.5 160.828 89.7344C160.016 90.1562 159.164 90.6953 158.273 91.3516L157.641 90.1562C159.484 88.7031 160.883 87.6562 161.836 87.0156C163.32 86.0156 164.508 85.3359 165.398 84.9766C165.977 84.7422 166.453 84.625 166.828 84.625C167.281 84.625 167.625 84.7578 167.859 85.0234C168.109 85.2734 168.234 85.6641 168.234 86.1953C168.234 86.6016 168.156 87.1953 168 87.9766C167.812 88.9922 167.273 91.25 166.383 94.75C167.883 92.4531 169.141 90.7578 170.156 89.6641C170.938 88.8359 171.938 87.9844 173.156 87.1094C174.375 86.2188 175.43 85.6016 176.32 85.2578C177.227 84.8984 178.086 84.7188 178.898 84.7188C179.398 84.7188 179.812 84.8516 180.141 85.1172C180.484 85.3828 180.797 85.9219 181.078 86.7344C181.469 87.8438 181.664 89.0625 181.664 90.3906C181.664 92.3438 181.258 94.5234 180.445 96.9297C179.633 99.3203 178.844 101 178.078 101.969C177.312 102.938 176.133 103.961 174.539 105.039C172.945 106.117 171.617 106.898 170.555 107.383C169.492 107.867 168.242 108.109 166.805 108.109C165.883 108.109 164.977 108.008 164.086 107.805C163.133 111.617 162.438 114.703 162 117.062C161.891 117.656 161.812 118.469 161.766 119.5C161.188 119.562 160.492 119.664 159.68 119.805C157.93 120.133 156.844 120.367 156.422 120.508ZM164.648 104.523C166.195 105.352 167.703 105.766 169.172 105.766C170.047 105.766 170.805 105.531 171.445 105.062C172.102 104.594 172.734 103.742 173.344 102.508C173.953 101.258 174.609 99.3281 175.312 96.7188C175.844 94.7188 176.109 92.9062 176.109 91.2812C176.109 90.125 175.984 89.3594 175.734 88.9844C175.547 88.7031 175.273 88.5625 174.914 88.5625C174.523 88.5625 174.008 88.7188 173.367 89.0312C172.492 89.4688 171.57 90.1797 170.602 91.1641C169.633 92.1484 168.734 93.3359 167.906 94.7266C167.094 96.1172 166.484 97.4297 166.078 98.6641C165.797 99.4766 165.32 101.43 164.648 104.523ZM199.266 101.406L199.852 102.719C199.039 103.359 197.758 104.281 196.008 105.484C194.258 106.688 192.859 107.5 191.812 107.922C191.109 108.188 190.5 108.32 189.984 108.32C189.062 108.32 188.375 108.039 187.922 107.477C187.469 106.898 187.242 106.172 187.242 105.297C187.242 104.75 187.32 104.055 187.477 103.211C187.586 102.57 188.195 99.75 189.305 94.75C190.039 91.3906 190.484 89.2344 190.641 88.2812H185.484L185.789 87.0156C187.148 86.7344 188.977 86.1953 191.273 85.3984C191.305 85.0234 191.414 84.2812 191.602 83.1719C191.898 81.4219 192.047 79.9922 192.047 78.8828C192.828 78.7109 193.594 78.5 194.344 78.25L197.906 77.0078L198.445 77.5938C197.93 79.1094 197.219 81.8438 196.312 85.7969H198.727C200.32 85.7969 201.68 85.7344 202.805 85.6094L202.992 85.7969C202.648 87.0938 202.438 87.9844 202.359 88.4688C200.984 88.3438 199.625 88.2812 198.281 88.2812H195.797C195.703 88.7344 195.383 90.125 194.836 92.4531C194.82 92.5312 194.328 94.9297 193.359 99.6484C193.062 101.133 192.883 102.109 192.82 102.578C192.789 102.844 192.773 103.078 192.773 103.281C192.773 103.656 192.875 103.945 193.078 104.148C193.281 104.352 193.555 104.453 193.898 104.453C194.383 104.453 194.977 104.258 195.68 103.867C196.961 103.148 198.156 102.328 199.266 101.406ZM211.195 77.6406C211.195 76.6094 211.508 75.7734 212.133 75.1328C212.773 74.4766 213.555 74.1484 214.477 74.1484C215.258 74.1484 215.883 74.3906 216.352 74.875C216.836 75.3438 217.078 75.9688 217.078 76.75C217.078 77.8594 216.773 78.7578 216.164 79.4453C215.555 80.1172 214.781 80.4531 213.844 80.4531C213.016 80.4531 212.367 80.2109 211.898 79.7266C211.43 79.2422 211.195 78.5469 211.195 77.6406ZM203.953 91.7969L203.367 90.5547L206.578 88.1875C208.219 87.0312 209.32 86.2969 209.883 85.9844C210.789 85.4844 211.594 85.125 212.297 84.9062C212.734 84.7812 213.117 84.7188 213.445 84.7188C213.82 84.7188 214.148 84.875 214.43 85.1875C214.727 85.5 214.875 85.9297 214.875 86.4766C214.875 87.0703 214.812 87.6875 214.688 88.3281C214.484 89.3281 213.922 91.5078 213 94.8672C212.078 98.2266 211.508 100.43 211.289 101.477C211.07 102.508 210.961 103.188 210.961 103.516C210.961 103.766 211.023 103.961 211.148 104.102C211.289 104.242 211.438 104.312 211.594 104.312C211.781 104.312 212.078 104.203 212.484 103.984C213.406 103.5 214.438 102.867 215.578 102.086L216.211 103.328C214.977 104.203 213.578 105.148 212.016 106.164C210.453 107.164 209.305 107.797 208.57 108.062C208.102 108.234 207.648 108.32 207.211 108.32C206.68 108.32 206.242 108.117 205.898 107.711C205.555 107.32 205.383 106.711 205.383 105.883C205.383 105.227 205.453 104.547 205.594 103.844C205.766 102.906 206.172 101.234 206.812 98.8281C208.125 93.8594 208.781 90.9375 208.781 90.0625C208.781 89.8594 208.727 89.7031 208.617 89.5938C208.523 89.4844 208.398 89.4297 208.242 89.4297C207.617 89.4297 206.188 90.2188 203.953 91.7969ZM220.336 100.844C220.336 98.9062 220.656 96.8906 221.297 94.7969C221.953 92.7031 222.656 91.1953 223.406 90.2734C223.875 89.6953 224.703 88.9375 225.891 88C227.094 87.0469 228.406 86.2656 229.828 85.6562C231.266 85.0312 232.789 84.7188 234.398 84.7188C235.742 84.7188 236.969 84.9219 238.078 85.3281C239.188 85.7344 240.023 86.2656 240.586 86.9219C241.148 87.5625 241.562 88.3359 241.828 89.2422C242.094 90.1484 242.227 91.1406 242.227 92.2188C242.227 94.2656 241.883 96.3125 241.195 98.3594C240.523 100.391 239.742 101.945 238.852 103.023C238.211 103.773 237.203 104.609 235.828 105.531C234.469 106.438 233.156 107.125 231.891 107.594C230.641 108.078 229.227 108.32 227.648 108.32C225.789 108.32 224.312 107.992 223.219 107.336C222.141 106.68 221.391 105.781 220.969 104.641C220.547 103.484 220.336 102.219 220.336 100.844ZM225.867 100.656C225.867 102.578 226.227 103.953 226.945 104.781C227.68 105.609 228.711 106.023 230.039 106.023C230.93 106.023 231.695 105.812 232.336 105.391C232.992 104.953 233.586 104.258 234.117 103.305C234.664 102.336 235.164 101.008 235.617 99.3203C236.273 96.8516 236.602 94.4922 236.602 92.2422C236.602 90.3359 236.219 88.9609 235.453 88.1172C234.703 87.2578 233.719 86.8281 232.5 86.8281C231.25 86.8281 230.18 87.2969 229.289 88.2344C228.398 89.1562 227.602 90.9219 226.898 93.5312C226.211 96.1406 225.867 98.5156 225.867 100.656ZM246.773 108.156L246.164 107.594C246.555 106.578 246.922 105.477 247.266 104.289C248 101.695 248.562 99.5625 248.953 97.8906C249.359 96.2188 249.711 94.3906 250.008 92.4062C250.164 91.3594 250.242 90.6406 250.242 90.25C250.242 89.9844 250.188 89.7891 250.078 89.6641C249.969 89.5391 249.836 89.4766 249.68 89.4766C249.148 89.4766 247.984 90.1562 246.188 91.5156L245.555 90.25C248.586 87.8125 250.789 86.2188 252.164 85.4688C253.07 84.9688 253.836 84.7188 254.461 84.7188C254.898 84.7188 255.227 84.8359 255.445 85.0703C255.664 85.2891 255.773 85.6719 255.773 86.2188C255.773 86.8906 255.68 87.6875 255.492 88.6094C255.211 90.0781 254.578 92.6797 253.594 96.4141C255.062 93.6953 256.938 91.25 259.219 89.0781C260.891 87.5 262.5 86.3203 264.047 85.5391C265.078 85.0078 265.984 84.7422 266.766 84.7422C267.422 84.7422 267.922 84.9297 268.266 85.3047C268.609 85.6797 268.781 86.2266 268.781 86.9453C268.781 87.5078 268.688 88.25 268.5 89.1719C268.188 90.625 267.516 93.2031 266.484 96.9062C265.969 98.7656 265.594 100.359 265.359 101.688C265.203 102.578 265.125 103.172 265.125 103.469C265.125 103.766 265.18 103.992 265.289 104.148C265.383 104.258 265.516 104.312 265.688 104.312C265.969 104.312 266.367 104.172 266.883 103.891C267.695 103.453 268.5 102.914 269.297 102.273L269.883 103.586C267.305 105.555 265.242 106.914 263.695 107.664C262.773 108.102 261.914 108.32 261.117 108.32C260.523 108.32 260.102 108.094 259.852 107.641C259.602 107.203 259.477 106.656 259.477 106C259.477 104.766 260.047 102.148 261.188 98.1484C262.328 94.1328 262.898 91.5469 262.898 90.3906C262.898 90.0938 262.812 89.8672 262.641 89.7109C262.484 89.5391 262.273 89.4531 262.008 89.4531C261.664 89.4531 261.273 89.5781 260.836 89.8281C259.883 90.375 258.773 91.4219 257.508 92.9688C256.242 94.5156 255.234 96.1094 254.484 97.75C253.75 99.3906 253.195 100.938 252.82 102.391C252.273 104.5 251.938 106.133 251.812 107.289C249.828 107.445 248.148 107.734 246.773 108.156Z" fill="white"/>
<path d="M286.368 108.5V82.1C286.368 79.188 287.232 76.868 288.96 75.14C290.688 73.38 293.152 72.5 296.352 72.5C297.44 72.5 298.48 72.612 299.472 72.836C300.496 73.06 301.36 73.412 302.064 73.892L300.096 79.316C299.68 79.028 299.216 78.804 298.704 78.644C298.192 78.484 297.648 78.404 297.072 78.404C295.984 78.404 295.136 78.724 294.528 79.364C293.952 79.972 293.664 80.9 293.664 82.148V84.548L293.856 87.764V108.5H286.368ZM282.384 89.012V83.252H300.288V89.012H282.384ZM315.978 108.884C313.226 108.884 310.778 108.308 308.634 107.156C306.522 106.004 304.842 104.436 303.594 102.452C302.378 100.436 301.77 98.148 301.77 95.588C301.77 92.996 302.378 90.708 303.594 88.724C304.842 86.708 306.522 85.14 308.634 84.02C310.778 82.868 313.226 82.292 315.978 82.292C318.698 82.292 321.13 82.868 323.274 84.02C325.418 85.14 327.098 86.692 328.314 88.676C329.53 90.66 330.138 92.964 330.138 95.588C330.138 98.148 329.53 100.436 328.314 102.452C327.098 104.436 325.418 106.004 323.274 107.156C321.13 108.308 318.698 108.884 315.978 108.884ZM315.978 102.74C317.226 102.74 318.346 102.452 319.338 101.876C320.33 101.3 321.114 100.484 321.69 99.428C322.266 98.34 322.554 97.06 322.554 95.588C322.554 94.084 322.266 92.804 321.69 91.748C321.114 90.692 320.33 89.876 319.338 89.3C318.346 88.724 317.226 88.436 315.978 88.436C314.73 88.436 313.61 88.724 312.618 89.3C311.626 89.876 310.826 90.692 310.218 91.748C309.642 92.804 309.354 94.084 309.354 95.588C309.354 97.06 309.642 98.34 310.218 99.428C310.826 100.484 311.626 101.3 312.618 101.876C313.61 102.452 314.73 102.74 315.978 102.74ZM335.144 108.5V82.676H342.296V89.972L341.288 87.86C342.056 86.036 343.288 84.66 344.984 83.732C346.68 82.772 348.744 82.292 351.176 82.292V89.204C350.856 89.172 350.568 89.156 350.312 89.156C350.056 89.124 349.784 89.108 349.496 89.108C347.448 89.108 345.784 89.7 344.504 90.884C343.256 92.036 342.632 93.844 342.632 96.308V108.5H335.144ZM388.747 82.292C390.795 82.292 392.603 82.708 394.171 83.54C395.771 84.34 397.019 85.588 397.915 87.284C398.843 88.948 399.307 91.092 399.307 93.716V108.5H391.819V94.868C391.819 92.788 391.387 91.252 390.523 90.26C389.659 89.268 388.443 88.772 386.875 88.772C385.787 88.772 384.811 89.028 383.947 89.54C383.083 90.02 382.411 90.756 381.931 91.748C381.451 92.74 381.211 94.004 381.211 95.54V108.5H373.723V94.868C373.723 92.788 373.291 91.252 372.427 90.26C371.595 89.268 370.395 88.772 368.827 88.772C367.739 88.772 366.763 89.028 365.899 89.54C365.035 90.02 364.363 90.756 363.883 91.748C363.403 92.74 363.163 94.004 363.163 95.54V108.5H355.675V82.676H362.827V89.732L361.483 87.668C362.379 85.908 363.643 84.58 365.275 83.684C366.939 82.756 368.827 82.292 370.939 82.292C373.307 82.292 375.371 82.9 377.131 84.116C378.923 85.3 380.107 87.124 380.683 89.588L378.043 88.868C378.907 86.852 380.283 85.252 382.171 84.068C384.091 82.884 386.283 82.292 388.747 82.292Z" fill="white"/>
</svg>
